<svg width="10" height="6" viewBox="0 0 10 6" fill="none" xmlns="http://www.w3.org/2000/svg">
<path d="M8.49984 5.49944L5.02491 2.08652L1.56147 5.49944C1.42074 5.64027 1.22983 5.71943 1.03073 5.7195C0.831639 5.71957 0.640672 5.64055 0.499842 5.49982C0.359012 5.35909 0.279855 5.16818 0.279785 4.96908C0.279714 4.76999 0.358737 4.57902 0.499467 4.43819L4.49466 0.493516C4.63531 0.352913 4.82604 0.273926 5.02491 0.273926C5.22378 0.273926 5.41451 0.352913 5.55516 0.493516L9.56184 4.43819C9.63152 4.50792 9.68679 4.5907 9.72448 4.68179C9.76218 4.77288 9.78156 4.8705 9.78152 4.96908C9.78149 5.06766 9.76204 5.16527 9.72428 5.25634C9.68652 5.3474 9.6312 5.43013 9.56147 5.49982C9.49173 5.5695 9.40896 5.62476 9.31787 5.66246C9.22678 5.70015 9.12916 5.71953 9.03057 5.7195C8.93199 5.71946 8.83438 5.70001 8.74332 5.66226C8.65226 5.6245 8.56952 5.56917 8.49984 5.49944Z" fill="white"/>
</svg>
