<svg width="10" height="6" viewBox="0 0 10 6" fill="none" xmlns="http://www.w3.org/2000/svg">
<path d="M1.50016 0.500559L4.97509 3.91348L8.43853 0.500558C8.57926 0.359728 8.77017 0.280571 8.96927 0.280501C9.16836 0.280431 9.35933 0.359453 9.50016 0.500183C9.64099 0.640913 9.72014 0.831825 9.72022 1.03092C9.72029 1.23001 9.64126 1.42098 9.50053 1.56181L5.50534 5.50648C5.36469 5.64709 5.17396 5.72607 4.97509 5.72607C4.77622 5.72607 4.58549 5.64709 4.44484 5.50648L0.438159 1.56181C0.368476 1.49208 0.313211 1.4093 0.275518 1.31821C0.237825 1.22712 0.218441 1.1295 0.218477 1.03092C0.218512 0.932337 0.237963 0.834728 0.275721 0.743665C0.313479 0.652601 0.368803 0.569866 0.438534 0.500183C0.508266 0.430501 0.591041 0.375235 0.682131 0.337542C0.773221 0.299849 0.870844 0.280467 0.969426 0.280502C1.06801 0.280536 1.16562 0.299988 1.25668 0.337745C1.34774 0.375502 1.43048 0.430827 1.50016 0.500559Z" fill="white"/>
</svg>
