<svg width="1509" height="558" viewBox="0 0 1509 558" fill="none" xmlns="http://www.w3.org/2000/svg">
<line x1="1327.75" y1="558" x2="1327.75" y2="6.48275e-05" stroke="url(#paint0_linear_70_7556)" stroke-width="0.5"/>
<line x1="1354.75" y1="558" x2="1354.75" y2="6.48275e-05" stroke="url(#paint1_linear_70_7556)" stroke-width="0.5"/>
<line x1="963.75" y1="558" x2="963.75" y2="6.48275e-05" stroke="url(#paint2_linear_70_7556)" stroke-width="0.5"/>
<line x1="1466.75" y1="558" x2="1466.75" y2="6.48275e-05" stroke="url(#paint3_linear_70_7556)" stroke-width="0.5"/>
<line x1="1201.75" y1="558" x2="1201.75" y2="6.48275e-05" stroke="url(#paint4_linear_70_7556)" stroke-width="0.5"/>
<line x1="1494.75" y1="558" x2="1494.75" y2="6.48275e-05" stroke="url(#paint5_linear_70_7556)" stroke-width="0.5"/>
<line x1="1215.75" y1="558" x2="1215.75" y2="6.48275e-05" stroke="url(#paint6_linear_70_7556)" stroke-width="0.5"/>
<line x1="1271.75" y1="558" x2="1271.75" y2="6.48275e-05" stroke="url(#paint7_linear_70_7556)" stroke-width="0.5"/>
<line x1="908.75" y1="558" x2="908.75" y2="6.48275e-05" stroke="url(#paint8_linear_70_7556)" stroke-width="0.5"/>
<line x1="1410.75" y1="558" x2="1410.75" y2="6.48275e-05" stroke="url(#paint9_linear_70_7556)" stroke-width="0.5"/>
<line x1="1047.75" y1="558" x2="1047.75" y2="6.48275e-05" stroke="url(#paint10_linear_70_7556)" stroke-width="0.5"/>
<line x1="1103.75" y1="558" x2="1103.75" y2="6.48275e-05" stroke="url(#paint11_linear_70_7556)" stroke-width="0.5"/>
<line x1="824.75" y1="558" x2="824.75" y2="6.48275e-05" stroke="url(#paint12_linear_70_7556)" stroke-width="0.5"/>
<line x1="1257.75" y1="558" x2="1257.75" y2="6.48275e-05" stroke="url(#paint13_linear_70_7556)" stroke-width="0.5"/>
<line x1="1313.75" y1="558" x2="1313.75" y2="6.48275e-05" stroke="url(#paint14_linear_70_7556)" stroke-width="0.5"/>
<line x1="936.75" y1="558" x2="936.75" y2="6.48275e-05" stroke="url(#paint15_linear_70_7556)" stroke-width="0.5"/>
<line x1="1438.75" y1="558" x2="1438.75" y2="6.48275e-05" stroke="url(#paint16_linear_70_7556)" stroke-width="0.5"/>
<line x1="1089.75" y1="558" x2="1089.75" y2="6.48275e-05" stroke="url(#paint17_linear_70_7556)" stroke-width="0.5"/>
<line x1="1145.75" y1="558" x2="1145.75" y2="6.48275e-05" stroke="url(#paint18_linear_70_7556)" stroke-width="0.5"/>
<line x1="852.75" y1="558" x2="852.75" y2="6.48275e-05" stroke="url(#paint19_linear_70_7556)" stroke-width="0.5"/>
<line x1="1159.75" y1="558" x2="1159.75" y2="6.48275e-05" stroke="url(#paint20_linear_70_7556)" stroke-width="0.5"/>
<line x1="880.75" y1="558" x2="880.75" y2="6.48275e-05" stroke="url(#paint21_linear_70_7556)" stroke-width="0.5"/>
<line x1="1382.75" y1="558" x2="1382.75" y2="6.48275e-05" stroke="url(#paint22_linear_70_7556)" stroke-width="0.5"/>
<line x1="991.75" y1="558" x2="991.75" y2="6.48275e-05" stroke="url(#paint23_linear_70_7556)" stroke-width="0.5"/>
<line x1="1033.75" y1="558" x2="1033.75" y2="6.48275e-05" stroke="url(#paint24_linear_70_7556)" stroke-width="0.5"/>
<line x1="796.75" y1="558" x2="796.75" y2="6.48275e-05" stroke="url(#paint25_linear_70_7556)" stroke-width="0.5"/>
<line x1="1299.75" y1="558" x2="1299.75" y2="6.48275e-05" stroke="url(#paint26_linear_70_7556)" stroke-width="0.5"/>
<line x1="1341.75" y1="558" x2="1341.75" y2="6.48275e-05" stroke="url(#paint27_linear_70_7556)" stroke-width="0.5"/>
<line x1="950.75" y1="558" x2="950.75" y2="6.48275e-05" stroke="url(#paint28_linear_70_7556)" stroke-width="0.5"/>
<line x1="1131.75" y1="558" x2="1131.75" y2="6.48275e-05" stroke="url(#paint29_linear_70_7556)" stroke-width="0.5"/>
<line x1="1173.75" y1="558" x2="1173.75" y2="6.48275e-05" stroke="url(#paint30_linear_70_7556)" stroke-width="0.5"/>
<line x1="866.75" y1="558" x2="866.75" y2="6.48275e-05" stroke="url(#paint31_linear_70_7556)" stroke-width="0.5"/>
<line x1="1480.75" y1="558" x2="1480.75" y2="6.48275e-05" stroke="url(#paint32_linear_70_7556)" stroke-width="0.5"/>
<line x1="1187.75" y1="558" x2="1187.75" y2="6.48275e-05" stroke="url(#paint33_linear_70_7556)" stroke-width="0.5"/>
<line x1="1243.75" y1="558" x2="1243.75" y2="6.48275e-05" stroke="url(#paint34_linear_70_7556)" stroke-width="0.5"/>
<line x1="894.75" y1="558" x2="894.75" y2="6.48275e-05" stroke="url(#paint35_linear_70_7556)" stroke-width="0.5"/>
<line x1="1396.75" y1="558" x2="1396.75" y2="6.48275e-05" stroke="url(#paint36_linear_70_7556)" stroke-width="0.5"/>
<line x1="1019.75" y1="558" x2="1019.75" y2="6.48275e-05" stroke="url(#paint37_linear_70_7556)" stroke-width="0.5"/>
<line x1="1075.75" y1="558" x2="1075.75" y2="6.48275e-05" stroke="url(#paint38_linear_70_7556)" stroke-width="0.5"/>
<line x1="810.75" y1="558" x2="810.75" y2="6.48275e-05" stroke="url(#paint39_linear_70_7556)" stroke-width="0.5"/>
<line x1="1508.75" y1="558" x2="1508.75" y2="6.48275e-05" stroke="url(#paint40_linear_70_7556)" stroke-width="0.5"/>
<line x1="1229.75" y1="558" x2="1229.75" y2="6.48275e-05" stroke="url(#paint41_linear_70_7556)" stroke-width="0.5"/>
<line x1="1285.75" y1="558" x2="1285.75" y2="6.48275e-05" stroke="url(#paint42_linear_70_7556)" stroke-width="0.5"/>
<line x1="922.75" y1="558" x2="922.75" y2="6.48275e-05" stroke="url(#paint43_linear_70_7556)" stroke-width="0.5"/>
<line x1="1424.75" y1="558" x2="1424.75" y2="6.48275e-05" stroke="url(#paint44_linear_70_7556)" stroke-width="0.5"/>
<line x1="1061.75" y1="558" x2="1061.75" y2="6.48275e-05" stroke="url(#paint45_linear_70_7556)" stroke-width="0.5"/>
<line x1="1117.75" y1="558" x2="1117.75" y2="6.48275e-05" stroke="url(#paint46_linear_70_7556)" stroke-width="0.5"/>
<line x1="838.75" y1="558" x2="838.75" y2="6.48275e-05" stroke="url(#paint47_linear_70_7556)" stroke-width="0.5"/>
<line x1="1452.75" y1="558" x2="1452.75" y2="6.48275e-05" stroke="url(#paint48_linear_70_7556)" stroke-width="0.5"/>
<line x1="1368.75" y1="558" x2="1368.75" y2="6.48275e-05" stroke="url(#paint49_linear_70_7556)" stroke-width="0.5"/>
<line x1="977.75" y1="558" x2="977.75" y2="6.48275e-05" stroke="url(#paint50_linear_70_7556)" stroke-width="0.5"/>
<line x1="1005.75" y1="558" x2="1005.75" y2="6.48275e-05" stroke="url(#paint51_linear_70_7556)" stroke-width="0.5"/>
<line x1="782.75" y1="558" x2="782.75" y2="6.48275e-05" stroke="url(#paint52_linear_70_7556)" stroke-width="0.5"/>
<line x1="768.75" y1="558" x2="768.75" y2="6.48275e-05" stroke="url(#paint53_linear_70_7556)" stroke-width="0.5"/>
<line x1="545.75" y1="558" x2="545.75" y2="6.48275e-05" stroke="url(#paint54_linear_70_7556)" stroke-width="0.5"/>
<line x1="573.75" y1="558" x2="573.75" y2="6.48275e-05" stroke="url(#paint55_linear_70_7556)" stroke-width="0.5"/>
<line x1="182.75" y1="558" x2="182.75" y2="5.33835e-05" stroke="url(#paint56_linear_70_7556)" stroke-width="0.5"/>
<line x1="684.75" y1="558" x2="684.75" y2="6.48275e-05" stroke="url(#paint57_linear_70_7556)" stroke-width="0.5"/>
<line x1="419.75" y1="558" x2="419.75" y2="6.48275e-05" stroke="url(#paint58_linear_70_7556)" stroke-width="0.5"/>
<line x1="712.75" y1="558" x2="712.75" y2="6.48275e-05" stroke="url(#paint59_linear_70_7556)" stroke-width="0.5"/>
<line x1="433.75" y1="558" x2="433.75" y2="6.48275e-05" stroke="url(#paint60_linear_70_7556)" stroke-width="0.5"/>
<line x1="489.75" y1="558" x2="489.75" y2="6.48275e-05" stroke="url(#paint61_linear_70_7556)" stroke-width="0.5"/>
<line x1="126.75" y1="558" x2="126.75" y2="4.19395e-05" stroke="url(#paint62_linear_70_7556)" stroke-width="0.5"/>
<line x1="628.75" y1="558" x2="628.75" y2="6.48275e-05" stroke="url(#paint63_linear_70_7556)" stroke-width="0.5"/>
<line x1="265.75" y1="558" x2="265.75" y2="6.48275e-05" stroke="url(#paint64_linear_70_7556)" stroke-width="0.5"/>
<line x1="321.75" y1="558" x2="321.75" y2="6.48275e-05" stroke="url(#paint65_linear_70_7556)" stroke-width="0.5"/>
<line x1="42.75" y1="558" x2="42.75" y2="4.19395e-05" stroke="url(#paint66_linear_70_7556)" stroke-width="0.5"/>
<line x1="740.75" y1="558" x2="740.75" y2="6.48275e-05" stroke="url(#paint67_linear_70_7556)" stroke-width="0.5"/>
<line x1="475.75" y1="558" x2="475.75" y2="6.48275e-05" stroke="url(#paint68_linear_70_7556)" stroke-width="0.5"/>
<line x1="531.75" y1="558" x2="531.75" y2="6.48275e-05" stroke="url(#paint69_linear_70_7556)" stroke-width="0.5"/>
<line x1="154.75" y1="558" x2="154.75" y2="5.33835e-05" stroke="url(#paint70_linear_70_7556)" stroke-width="0.5"/>
<line x1="656.75" y1="558" x2="656.75" y2="6.48275e-05" stroke="url(#paint71_linear_70_7556)" stroke-width="0.5"/>
<line x1="307.75" y1="558" x2="307.75" y2="6.48275e-05" stroke="url(#paint72_linear_70_7556)" stroke-width="0.5"/>
<line x1="363.75" y1="558" x2="363.75" y2="6.48275e-05" stroke="url(#paint73_linear_70_7556)" stroke-width="0.5"/>
<line x1="70.75" y1="558" x2="70.75" y2="3.81249e-05" stroke="url(#paint74_linear_70_7556)" stroke-width="0.5"/>
<line x1="377.75" y1="558" x2="377.75" y2="6.48275e-05" stroke="url(#paint75_linear_70_7556)" stroke-width="0.5"/>
<line x1="98.75" y1="558" x2="98.75" y2="5.33836e-05" stroke="url(#paint76_linear_70_7556)" stroke-width="0.5"/>
<line x1="600.75" y1="558" x2="600.75" y2="6.48275e-05" stroke="url(#paint77_linear_70_7556)" stroke-width="0.5"/>
<line x1="209.75" y1="558" x2="209.75" y2="6.48276e-05" stroke="url(#paint78_linear_70_7556)" stroke-width="0.5"/>
<line x1="251.75" y1="558" x2="251.75" y2="6.48275e-05" stroke="url(#paint79_linear_70_7556)" stroke-width="0.5"/>
<line x1="14.75" y1="558" x2="14.75" y2="-0.000106833" stroke="url(#paint80_linear_70_7556)" stroke-width="0.5"/>
<line x1="754.75" y1="558" x2="754.75" y2="6.48275e-05" stroke="url(#paint81_linear_70_7556)" stroke-width="0.5"/>
<line x1="517.75" y1="558" x2="517.75" y2="6.48275e-05" stroke="url(#paint82_linear_70_7556)" stroke-width="0.5"/>
<line x1="559.75" y1="558" x2="559.75" y2="6.48275e-05" stroke="url(#paint83_linear_70_7556)" stroke-width="0.5"/>
<line x1="168.75" y1="558" x2="168.75" y2="5.33836e-05" stroke="url(#paint84_linear_70_7556)" stroke-width="0.5"/>
<line x1="349.75" y1="558" x2="349.75" y2="6.48275e-05" stroke="url(#paint85_linear_70_7556)" stroke-width="0.5"/>
<line x1="391.75" y1="558" x2="391.75" y2="6.48275e-05" stroke="url(#paint86_linear_70_7556)" stroke-width="0.5"/>
<line x1="84.75" y1="558" x2="84.75" y2="5.33835e-05" stroke="url(#paint87_linear_70_7556)" stroke-width="0.5"/>
<line x1="698.75" y1="558" x2="698.75" y2="6.48275e-05" stroke="url(#paint88_linear_70_7556)" stroke-width="0.5"/>
<line x1="405.75" y1="558" x2="405.75" y2="6.48275e-05" stroke="url(#paint89_linear_70_7556)" stroke-width="0.5"/>
<line x1="461.75" y1="558" x2="461.75" y2="6.48275e-05" stroke="url(#paint90_linear_70_7556)" stroke-width="0.5"/>
<line x1="112.75" y1="558" x2="112.75" y2="4.95689e-05" stroke="url(#paint91_linear_70_7556)" stroke-width="0.5"/>
<line x1="614.75" y1="558" x2="614.75" y2="6.48275e-05" stroke="url(#paint92_linear_70_7556)" stroke-width="0.5"/>
<line x1="237.75" y1="558" x2="237.75" y2="6.48275e-05" stroke="url(#paint93_linear_70_7556)" stroke-width="0.5"/>
<line x1="293.75" y1="558" x2="293.75" y2="6.48275e-05" stroke="url(#paint94_linear_70_7556)" stroke-width="0.5"/>
<line x1="28.75" y1="558" x2="28.75" y2="5.33835e-05" stroke="url(#paint95_linear_70_7556)" stroke-width="0.5"/>
<line x1="726.75" y1="558" x2="726.75" y2="6.48275e-05" stroke="url(#paint96_linear_70_7556)" stroke-width="0.5"/>
<line x1="447.75" y1="558" x2="447.75" y2="6.48275e-05" stroke="url(#paint97_linear_70_7556)" stroke-width="0.5"/>
<line x1="503.75" y1="558" x2="503.75" y2="6.48275e-05" stroke="url(#paint98_linear_70_7556)" stroke-width="0.5"/>
<line x1="140.75" y1="558" x2="140.75" y2="5.33835e-05" stroke="url(#paint99_linear_70_7556)" stroke-width="0.5"/>
<line x1="642.75" y1="558" x2="642.75" y2="6.48275e-05" stroke="url(#paint100_linear_70_7556)" stroke-width="0.5"/>
<line x1="279.75" y1="558" x2="279.75" y2="6.48276e-05" stroke="url(#paint101_linear_70_7556)" stroke-width="0.5"/>
<line x1="335.75" y1="558" x2="335.75" y2="6.48275e-05" stroke="url(#paint102_linear_70_7556)" stroke-width="0.5"/>
<line x1="56.75" y1="558" x2="56.75" y2="3.81249e-05" stroke="url(#paint103_linear_70_7556)" stroke-width="0.5"/>
<line x1="670.75" y1="558" x2="670.75" y2="6.48275e-05" stroke="url(#paint104_linear_70_7556)" stroke-width="0.5"/>
<line x1="586.75" y1="558" x2="586.75" y2="6.48275e-05" stroke="url(#paint105_linear_70_7556)" stroke-width="0.5"/>
<line x1="195.75" y1="558" x2="195.75" y2="6.48275e-05" stroke="url(#paint106_linear_70_7556)" stroke-width="0.5"/>
<line x1="223.75" y1="558" x2="223.75" y2="6.48276e-05" stroke="url(#paint107_linear_70_7556)" stroke-width="0.5"/>
<line x1="0.75" y1="558" x2="0.750049" y2="-0.000106833" stroke="url(#paint108_linear_70_7556)" stroke-width="0.5"/>
<defs>
<linearGradient id="paint0_linear_70_7556" x1="1326.5" y1="548.036" x2="1338.9" y2="-4.71506" gradientUnits="userSpaceOnUse">
<stop stop-color="#BE7D50"/>
<stop offset="1" stop-color="#BE7D50" stop-opacity="0"/>
</linearGradient>
<linearGradient id="paint1_linear_70_7556" x1="1353.5" y1="548.036" x2="1365.9" y2="-4.71506" gradientUnits="userSpaceOnUse">
<stop stop-color="#BE7D50"/>
<stop offset="1" stop-color="#BE7D50" stop-opacity="0"/>
</linearGradient>
<linearGradient id="paint2_linear_70_7556" x1="962.5" y1="548.036" x2="974.901" y2="-4.71506" gradientUnits="userSpaceOnUse">
<stop stop-color="#BE7D50"/>
<stop offset="1" stop-color="#BE7D50" stop-opacity="0"/>
</linearGradient>
<linearGradient id="paint3_linear_70_7556" x1="1465.5" y1="548.036" x2="1477.9" y2="-4.71506" gradientUnits="userSpaceOnUse">
<stop stop-color="#BE7D50"/>
<stop offset="1" stop-color="#BE7D50" stop-opacity="0"/>
</linearGradient>
<linearGradient id="paint4_linear_70_7556" x1="1200.5" y1="548.036" x2="1212.9" y2="-4.71506" gradientUnits="userSpaceOnUse">
<stop stop-color="#BE7D50"/>
<stop offset="1" stop-color="#BE7D50" stop-opacity="0"/>
</linearGradient>
<linearGradient id="paint5_linear_70_7556" x1="1493.5" y1="548.036" x2="1505.9" y2="-4.71506" gradientUnits="userSpaceOnUse">
<stop stop-color="#BE7D50"/>
<stop offset="1" stop-color="#BE7D50" stop-opacity="0"/>
</linearGradient>
<linearGradient id="paint6_linear_70_7556" x1="1214.5" y1="548.036" x2="1226.9" y2="-4.71506" gradientUnits="userSpaceOnUse">
<stop stop-color="#BE7D50"/>
<stop offset="1" stop-color="#BE7D50" stop-opacity="0"/>
</linearGradient>
<linearGradient id="paint7_linear_70_7556" x1="1270.5" y1="548.036" x2="1282.9" y2="-4.71506" gradientUnits="userSpaceOnUse">
<stop stop-color="#BE7D50"/>
<stop offset="1" stop-color="#BE7D50" stop-opacity="0"/>
</linearGradient>
<linearGradient id="paint8_linear_70_7556" x1="907.5" y1="548.036" x2="919.901" y2="-4.71506" gradientUnits="userSpaceOnUse">
<stop stop-color="#BE7D50"/>
<stop offset="1" stop-color="#BE7D50" stop-opacity="0"/>
</linearGradient>
<linearGradient id="paint9_linear_70_7556" x1="1409.5" y1="548.036" x2="1421.9" y2="-4.71506" gradientUnits="userSpaceOnUse">
<stop stop-color="#BE7D50"/>
<stop offset="1" stop-color="#BE7D50" stop-opacity="0"/>
</linearGradient>
<linearGradient id="paint10_linear_70_7556" x1="1046.5" y1="548.036" x2="1058.9" y2="-4.71506" gradientUnits="userSpaceOnUse">
<stop stop-color="#BE7D50"/>
<stop offset="1" stop-color="#BE7D50" stop-opacity="0"/>
</linearGradient>
<linearGradient id="paint11_linear_70_7556" x1="1102.5" y1="548.036" x2="1114.9" y2="-4.71506" gradientUnits="userSpaceOnUse">
<stop stop-color="#BE7D50"/>
<stop offset="1" stop-color="#BE7D50" stop-opacity="0"/>
</linearGradient>
<linearGradient id="paint12_linear_70_7556" x1="823.5" y1="548.036" x2="835.901" y2="-4.71506" gradientUnits="userSpaceOnUse">
<stop stop-color="#BE7D50"/>
<stop offset="1" stop-color="#BE7D50" stop-opacity="0"/>
</linearGradient>
<linearGradient id="paint13_linear_70_7556" x1="1256.5" y1="548.036" x2="1268.9" y2="-4.71506" gradientUnits="userSpaceOnUse">
<stop stop-color="#BE7D50"/>
<stop offset="1" stop-color="#BE7D50" stop-opacity="0"/>
</linearGradient>
<linearGradient id="paint14_linear_70_7556" x1="1312.5" y1="548.036" x2="1324.9" y2="-4.71506" gradientUnits="userSpaceOnUse">
<stop stop-color="#BE7D50"/>
<stop offset="1" stop-color="#BE7D50" stop-opacity="0"/>
</linearGradient>
<linearGradient id="paint15_linear_70_7556" x1="935.5" y1="548.036" x2="947.901" y2="-4.71506" gradientUnits="userSpaceOnUse">
<stop stop-color="#BE7D50"/>
<stop offset="1" stop-color="#BE7D50" stop-opacity="0"/>
</linearGradient>
<linearGradient id="paint16_linear_70_7556" x1="1437.5" y1="548.036" x2="1449.9" y2="-4.71506" gradientUnits="userSpaceOnUse">
<stop stop-color="#BE7D50"/>
<stop offset="1" stop-color="#BE7D50" stop-opacity="0"/>
</linearGradient>
<linearGradient id="paint17_linear_70_7556" x1="1088.5" y1="548.036" x2="1100.9" y2="-4.71506" gradientUnits="userSpaceOnUse">
<stop stop-color="#BE7D50"/>
<stop offset="1" stop-color="#BE7D50" stop-opacity="0"/>
</linearGradient>
<linearGradient id="paint18_linear_70_7556" x1="1144.5" y1="548.036" x2="1156.9" y2="-4.71506" gradientUnits="userSpaceOnUse">
<stop stop-color="#BE7D50"/>
<stop offset="1" stop-color="#BE7D50" stop-opacity="0"/>
</linearGradient>
<linearGradient id="paint19_linear_70_7556" x1="851.5" y1="548.036" x2="863.901" y2="-4.71506" gradientUnits="userSpaceOnUse">
<stop stop-color="#BE7D50"/>
<stop offset="1" stop-color="#BE7D50" stop-opacity="0"/>
</linearGradient>
<linearGradient id="paint20_linear_70_7556" x1="1158.5" y1="548.036" x2="1170.9" y2="-4.71506" gradientUnits="userSpaceOnUse">
<stop stop-color="#BE7D50"/>
<stop offset="1" stop-color="#BE7D50" stop-opacity="0"/>
</linearGradient>
<linearGradient id="paint21_linear_70_7556" x1="879.5" y1="548.036" x2="891.901" y2="-4.71506" gradientUnits="userSpaceOnUse">
<stop stop-color="#BE7D50"/>
<stop offset="1" stop-color="#BE7D50" stop-opacity="0"/>
</linearGradient>
<linearGradient id="paint22_linear_70_7556" x1="1381.5" y1="548.036" x2="1393.9" y2="-4.71506" gradientUnits="userSpaceOnUse">
<stop stop-color="#BE7D50"/>
<stop offset="1" stop-color="#BE7D50" stop-opacity="0"/>
</linearGradient>
<linearGradient id="paint23_linear_70_7556" x1="990.5" y1="548.036" x2="1002.9" y2="-4.71506" gradientUnits="userSpaceOnUse">
<stop stop-color="#BE7D50"/>
<stop offset="1" stop-color="#BE7D50" stop-opacity="0"/>
</linearGradient>
<linearGradient id="paint24_linear_70_7556" x1="1032.5" y1="548.036" x2="1044.9" y2="-4.71506" gradientUnits="userSpaceOnUse">
<stop stop-color="#BE7D50"/>
<stop offset="1" stop-color="#BE7D50" stop-opacity="0"/>
</linearGradient>
<linearGradient id="paint25_linear_70_7556" x1="795.5" y1="548.036" x2="807.901" y2="-4.71506" gradientUnits="userSpaceOnUse">
<stop stop-color="#BE7D50"/>
<stop offset="1" stop-color="#BE7D50" stop-opacity="0"/>
</linearGradient>
<linearGradient id="paint26_linear_70_7556" x1="1298.5" y1="548.036" x2="1310.9" y2="-4.71506" gradientUnits="userSpaceOnUse">
<stop stop-color="#BE7D50"/>
<stop offset="1" stop-color="#BE7D50" stop-opacity="0"/>
</linearGradient>
<linearGradient id="paint27_linear_70_7556" x1="1340.5" y1="548.036" x2="1352.9" y2="-4.71506" gradientUnits="userSpaceOnUse">
<stop stop-color="#BE7D50"/>
<stop offset="1" stop-color="#BE7D50" stop-opacity="0"/>
</linearGradient>
<linearGradient id="paint28_linear_70_7556" x1="949.5" y1="548.036" x2="961.901" y2="-4.71506" gradientUnits="userSpaceOnUse">
<stop stop-color="#BE7D50"/>
<stop offset="1" stop-color="#BE7D50" stop-opacity="0"/>
</linearGradient>
<linearGradient id="paint29_linear_70_7556" x1="1130.5" y1="548.036" x2="1142.9" y2="-4.71506" gradientUnits="userSpaceOnUse">
<stop stop-color="#BE7D50"/>
<stop offset="1" stop-color="#BE7D50" stop-opacity="0"/>
</linearGradient>
<linearGradient id="paint30_linear_70_7556" x1="1172.5" y1="548.036" x2="1184.9" y2="-4.71506" gradientUnits="userSpaceOnUse">
<stop stop-color="#BE7D50"/>
<stop offset="1" stop-color="#BE7D50" stop-opacity="0"/>
</linearGradient>
<linearGradient id="paint31_linear_70_7556" x1="865.5" y1="548.036" x2="877.901" y2="-4.71506" gradientUnits="userSpaceOnUse">
<stop stop-color="#BE7D50"/>
<stop offset="1" stop-color="#BE7D50" stop-opacity="0"/>
</linearGradient>
<linearGradient id="paint32_linear_70_7556" x1="1479.5" y1="548.036" x2="1491.9" y2="-4.71506" gradientUnits="userSpaceOnUse">
<stop stop-color="#BE7D50"/>
<stop offset="1" stop-color="#BE7D50" stop-opacity="0"/>
</linearGradient>
<linearGradient id="paint33_linear_70_7556" x1="1186.5" y1="548.036" x2="1198.9" y2="-4.71506" gradientUnits="userSpaceOnUse">
<stop stop-color="#BE7D50"/>
<stop offset="1" stop-color="#BE7D50" stop-opacity="0"/>
</linearGradient>
<linearGradient id="paint34_linear_70_7556" x1="1242.5" y1="548.036" x2="1254.9" y2="-4.71506" gradientUnits="userSpaceOnUse">
<stop stop-color="#BE7D50"/>
<stop offset="1" stop-color="#BE7D50" stop-opacity="0"/>
</linearGradient>
<linearGradient id="paint35_linear_70_7556" x1="893.5" y1="548.036" x2="905.901" y2="-4.71506" gradientUnits="userSpaceOnUse">
<stop stop-color="#BE7D50"/>
<stop offset="1" stop-color="#BE7D50" stop-opacity="0"/>
</linearGradient>
<linearGradient id="paint36_linear_70_7556" x1="1395.5" y1="548.036" x2="1407.9" y2="-4.71506" gradientUnits="userSpaceOnUse">
<stop stop-color="#BE7D50"/>
<stop offset="1" stop-color="#BE7D50" stop-opacity="0"/>
</linearGradient>
<linearGradient id="paint37_linear_70_7556" x1="1018.5" y1="548.036" x2="1030.9" y2="-4.71506" gradientUnits="userSpaceOnUse">
<stop stop-color="#BE7D50"/>
<stop offset="1" stop-color="#BE7D50" stop-opacity="0"/>
</linearGradient>
<linearGradient id="paint38_linear_70_7556" x1="1074.5" y1="548.036" x2="1086.9" y2="-4.71506" gradientUnits="userSpaceOnUse">
<stop stop-color="#BE7D50"/>
<stop offset="1" stop-color="#BE7D50" stop-opacity="0"/>
</linearGradient>
<linearGradient id="paint39_linear_70_7556" x1="809.5" y1="548.036" x2="821.901" y2="-4.71506" gradientUnits="userSpaceOnUse">
<stop stop-color="#BE7D50"/>
<stop offset="1" stop-color="#BE7D50" stop-opacity="0"/>
</linearGradient>
<linearGradient id="paint40_linear_70_7556" x1="1507.5" y1="548.036" x2="1519.9" y2="-4.71506" gradientUnits="userSpaceOnUse">
<stop stop-color="#BE7D50"/>
<stop offset="1" stop-color="#BE7D50" stop-opacity="0"/>
</linearGradient>
<linearGradient id="paint41_linear_70_7556" x1="1228.5" y1="548.036" x2="1240.9" y2="-4.71506" gradientUnits="userSpaceOnUse">
<stop stop-color="#BE7D50"/>
<stop offset="1" stop-color="#BE7D50" stop-opacity="0"/>
</linearGradient>
<linearGradient id="paint42_linear_70_7556" x1="1284.5" y1="548.036" x2="1296.9" y2="-4.71506" gradientUnits="userSpaceOnUse">
<stop stop-color="#BE7D50"/>
<stop offset="1" stop-color="#BE7D50" stop-opacity="0"/>
</linearGradient>
<linearGradient id="paint43_linear_70_7556" x1="921.5" y1="548.036" x2="933.901" y2="-4.71506" gradientUnits="userSpaceOnUse">
<stop stop-color="#BE7D50"/>
<stop offset="1" stop-color="#BE7D50" stop-opacity="0"/>
</linearGradient>
<linearGradient id="paint44_linear_70_7556" x1="1423.5" y1="548.036" x2="1435.9" y2="-4.71506" gradientUnits="userSpaceOnUse">
<stop stop-color="#BE7D50"/>
<stop offset="1" stop-color="#BE7D50" stop-opacity="0"/>
</linearGradient>
<linearGradient id="paint45_linear_70_7556" x1="1060.5" y1="548.036" x2="1072.9" y2="-4.71506" gradientUnits="userSpaceOnUse">
<stop stop-color="#BE7D50"/>
<stop offset="1" stop-color="#BE7D50" stop-opacity="0"/>
</linearGradient>
<linearGradient id="paint46_linear_70_7556" x1="1116.5" y1="548.036" x2="1128.9" y2="-4.71506" gradientUnits="userSpaceOnUse">
<stop stop-color="#BE7D50"/>
<stop offset="1" stop-color="#BE7D50" stop-opacity="0"/>
</linearGradient>
<linearGradient id="paint47_linear_70_7556" x1="837.5" y1="548.036" x2="849.901" y2="-4.71506" gradientUnits="userSpaceOnUse">
<stop stop-color="#BE7D50"/>
<stop offset="1" stop-color="#BE7D50" stop-opacity="0"/>
</linearGradient>
<linearGradient id="paint48_linear_70_7556" x1="1451.5" y1="548.036" x2="1463.9" y2="-4.71506" gradientUnits="userSpaceOnUse">
<stop stop-color="#BE7D50"/>
<stop offset="1" stop-color="#BE7D50" stop-opacity="0"/>
</linearGradient>
<linearGradient id="paint49_linear_70_7556" x1="1367.5" y1="548.036" x2="1379.9" y2="-4.71506" gradientUnits="userSpaceOnUse">
<stop stop-color="#BE7D50"/>
<stop offset="1" stop-color="#BE7D50" stop-opacity="0"/>
</linearGradient>
<linearGradient id="paint50_linear_70_7556" x1="976.5" y1="548.036" x2="988.901" y2="-4.71506" gradientUnits="userSpaceOnUse">
<stop stop-color="#BE7D50"/>
<stop offset="1" stop-color="#BE7D50" stop-opacity="0"/>
</linearGradient>
<linearGradient id="paint51_linear_70_7556" x1="1004.5" y1="548.036" x2="1016.9" y2="-4.71506" gradientUnits="userSpaceOnUse">
<stop stop-color="#BE7D50"/>
<stop offset="1" stop-color="#BE7D50" stop-opacity="0"/>
</linearGradient>
<linearGradient id="paint52_linear_70_7556" x1="781.5" y1="548.036" x2="793.901" y2="-4.71506" gradientUnits="userSpaceOnUse">
<stop stop-color="#BE7D50"/>
<stop offset="1" stop-color="#BE7D50" stop-opacity="0"/>
</linearGradient>
<linearGradient id="paint53_linear_70_7556" x1="767.5" y1="548.036" x2="779.901" y2="-4.71506" gradientUnits="userSpaceOnUse">
<stop stop-color="#BE7D50"/>
<stop offset="1" stop-color="#BE7D50" stop-opacity="0"/>
</linearGradient>
<linearGradient id="paint54_linear_70_7556" x1="544.5" y1="548.036" x2="556.901" y2="-4.71506" gradientUnits="userSpaceOnUse">
<stop stop-color="#BE7D50"/>
<stop offset="1" stop-color="#BE7D50" stop-opacity="0"/>
</linearGradient>
<linearGradient id="paint55_linear_70_7556" x1="572.5" y1="548.036" x2="584.901" y2="-4.71506" gradientUnits="userSpaceOnUse">
<stop stop-color="#BE7D50"/>
<stop offset="1" stop-color="#BE7D50" stop-opacity="0"/>
</linearGradient>
<linearGradient id="paint56_linear_70_7556" x1="181.5" y1="548.036" x2="193.901" y2="-4.71507" gradientUnits="userSpaceOnUse">
<stop stop-color="#BE7D50"/>
<stop offset="1" stop-color="#BE7D50" stop-opacity="0"/>
</linearGradient>
<linearGradient id="paint57_linear_70_7556" x1="683.5" y1="548.036" x2="695.901" y2="-4.71506" gradientUnits="userSpaceOnUse">
<stop stop-color="#BE7D50"/>
<stop offset="1" stop-color="#BE7D50" stop-opacity="0"/>
</linearGradient>
<linearGradient id="paint58_linear_70_7556" x1="418.5" y1="548.036" x2="430.901" y2="-4.71506" gradientUnits="userSpaceOnUse">
<stop stop-color="#BE7D50"/>
<stop offset="1" stop-color="#BE7D50" stop-opacity="0"/>
</linearGradient>
<linearGradient id="paint59_linear_70_7556" x1="711.5" y1="548.036" x2="723.901" y2="-4.71506" gradientUnits="userSpaceOnUse">
<stop stop-color="#BE7D50"/>
<stop offset="1" stop-color="#BE7D50" stop-opacity="0"/>
</linearGradient>
<linearGradient id="paint60_linear_70_7556" x1="432.5" y1="548.036" x2="444.901" y2="-4.71506" gradientUnits="userSpaceOnUse">
<stop stop-color="#BE7D50"/>
<stop offset="1" stop-color="#BE7D50" stop-opacity="0"/>
</linearGradient>
<linearGradient id="paint61_linear_70_7556" x1="488.5" y1="548.036" x2="500.901" y2="-4.71506" gradientUnits="userSpaceOnUse">
<stop stop-color="#BE7D50"/>
<stop offset="1" stop-color="#BE7D50" stop-opacity="0"/>
</linearGradient>
<linearGradient id="paint62_linear_70_7556" x1="125.5" y1="548.036" x2="137.901" y2="-4.71508" gradientUnits="userSpaceOnUse">
<stop stop-color="#BE7D50"/>
<stop offset="1" stop-color="#BE7D50" stop-opacity="0"/>
</linearGradient>
<linearGradient id="paint63_linear_70_7556" x1="627.5" y1="548.036" x2="639.901" y2="-4.71506" gradientUnits="userSpaceOnUse">
<stop stop-color="#BE7D50"/>
<stop offset="1" stop-color="#BE7D50" stop-opacity="0"/>
</linearGradient>
<linearGradient id="paint64_linear_70_7556" x1="264.5" y1="548.036" x2="276.901" y2="-4.71506" gradientUnits="userSpaceOnUse">
<stop stop-color="#BE7D50"/>
<stop offset="1" stop-color="#BE7D50" stop-opacity="0"/>
</linearGradient>
<linearGradient id="paint65_linear_70_7556" x1="320.5" y1="548.036" x2="332.901" y2="-4.71506" gradientUnits="userSpaceOnUse">
<stop stop-color="#BE7D50"/>
<stop offset="1" stop-color="#BE7D50" stop-opacity="0"/>
</linearGradient>
<linearGradient id="paint66_linear_70_7556" x1="41.5003" y1="548.036" x2="53.9015" y2="-4.71508" gradientUnits="userSpaceOnUse">
<stop stop-color="#BE7D50"/>
<stop offset="1" stop-color="#BE7D50" stop-opacity="0"/>
</linearGradient>
<linearGradient id="paint67_linear_70_7556" x1="739.5" y1="548.036" x2="751.901" y2="-4.71506" gradientUnits="userSpaceOnUse">
<stop stop-color="#BE7D50"/>
<stop offset="1" stop-color="#BE7D50" stop-opacity="0"/>
</linearGradient>
<linearGradient id="paint68_linear_70_7556" x1="474.5" y1="548.036" x2="486.901" y2="-4.71506" gradientUnits="userSpaceOnUse">
<stop stop-color="#BE7D50"/>
<stop offset="1" stop-color="#BE7D50" stop-opacity="0"/>
</linearGradient>
<linearGradient id="paint69_linear_70_7556" x1="530.5" y1="548.036" x2="542.901" y2="-4.71506" gradientUnits="userSpaceOnUse">
<stop stop-color="#BE7D50"/>
<stop offset="1" stop-color="#BE7D50" stop-opacity="0"/>
</linearGradient>
<linearGradient id="paint70_linear_70_7556" x1="153.5" y1="548.036" x2="165.901" y2="-4.71507" gradientUnits="userSpaceOnUse">
<stop stop-color="#BE7D50"/>
<stop offset="1" stop-color="#BE7D50" stop-opacity="0"/>
</linearGradient>
<linearGradient id="paint71_linear_70_7556" x1="655.5" y1="548.036" x2="667.901" y2="-4.71506" gradientUnits="userSpaceOnUse">
<stop stop-color="#BE7D50"/>
<stop offset="1" stop-color="#BE7D50" stop-opacity="0"/>
</linearGradient>
<linearGradient id="paint72_linear_70_7556" x1="306.5" y1="548.036" x2="318.901" y2="-4.71506" gradientUnits="userSpaceOnUse">
<stop stop-color="#BE7D50"/>
<stop offset="1" stop-color="#BE7D50" stop-opacity="0"/>
</linearGradient>
<linearGradient id="paint73_linear_70_7556" x1="362.5" y1="548.036" x2="374.901" y2="-4.71506" gradientUnits="userSpaceOnUse">
<stop stop-color="#BE7D50"/>
<stop offset="1" stop-color="#BE7D50" stop-opacity="0"/>
</linearGradient>
<linearGradient id="paint74_linear_70_7556" x1="69.5003" y1="548.036" x2="81.9015" y2="-4.71508" gradientUnits="userSpaceOnUse">
<stop stop-color="#BE7D50"/>
<stop offset="1" stop-color="#BE7D50" stop-opacity="0"/>
</linearGradient>
<linearGradient id="paint75_linear_70_7556" x1="376.5" y1="548.036" x2="388.901" y2="-4.71506" gradientUnits="userSpaceOnUse">
<stop stop-color="#BE7D50"/>
<stop offset="1" stop-color="#BE7D50" stop-opacity="0"/>
</linearGradient>
<linearGradient id="paint76_linear_70_7556" x1="97.5003" y1="548.036" x2="109.901" y2="-4.71507" gradientUnits="userSpaceOnUse">
<stop stop-color="#BE7D50"/>
<stop offset="1" stop-color="#BE7D50" stop-opacity="0"/>
</linearGradient>
<linearGradient id="paint77_linear_70_7556" x1="599.5" y1="548.036" x2="611.901" y2="-4.71506" gradientUnits="userSpaceOnUse">
<stop stop-color="#BE7D50"/>
<stop offset="1" stop-color="#BE7D50" stop-opacity="0"/>
</linearGradient>
<linearGradient id="paint78_linear_70_7556" x1="208.5" y1="548.036" x2="220.901" y2="-4.71506" gradientUnits="userSpaceOnUse">
<stop stop-color="#BE7D50"/>
<stop offset="1" stop-color="#BE7D50" stop-opacity="0"/>
</linearGradient>
<linearGradient id="paint79_linear_70_7556" x1="250.5" y1="548.036" x2="262.901" y2="-4.71506" gradientUnits="userSpaceOnUse">
<stop stop-color="#BE7D50"/>
<stop offset="1" stop-color="#BE7D50" stop-opacity="0"/>
</linearGradient>
<linearGradient id="paint80_linear_70_7556" x1="13.5003" y1="548.036" x2="25.9015" y2="-4.71523" gradientUnits="userSpaceOnUse">
<stop stop-color="#BE7D50"/>
<stop offset="1" stop-color="#BE7D50" stop-opacity="0"/>
</linearGradient>
<linearGradient id="paint81_linear_70_7556" x1="753.5" y1="548.036" x2="765.901" y2="-4.71506" gradientUnits="userSpaceOnUse">
<stop stop-color="#BE7D50"/>
<stop offset="1" stop-color="#BE7D50" stop-opacity="0"/>
</linearGradient>
<linearGradient id="paint82_linear_70_7556" x1="516.5" y1="548.036" x2="528.901" y2="-4.71506" gradientUnits="userSpaceOnUse">
<stop stop-color="#BE7D50"/>
<stop offset="1" stop-color="#BE7D50" stop-opacity="0"/>
</linearGradient>
<linearGradient id="paint83_linear_70_7556" x1="558.5" y1="548.036" x2="570.901" y2="-4.71506" gradientUnits="userSpaceOnUse">
<stop stop-color="#BE7D50"/>
<stop offset="1" stop-color="#BE7D50" stop-opacity="0"/>
</linearGradient>
<linearGradient id="paint84_linear_70_7556" x1="167.5" y1="548.036" x2="179.901" y2="-4.71507" gradientUnits="userSpaceOnUse">
<stop stop-color="#BE7D50"/>
<stop offset="1" stop-color="#BE7D50" stop-opacity="0"/>
</linearGradient>
<linearGradient id="paint85_linear_70_7556" x1="348.5" y1="548.036" x2="360.901" y2="-4.71506" gradientUnits="userSpaceOnUse">
<stop stop-color="#BE7D50"/>
<stop offset="1" stop-color="#BE7D50" stop-opacity="0"/>
</linearGradient>
<linearGradient id="paint86_linear_70_7556" x1="390.5" y1="548.036" x2="402.901" y2="-4.71506" gradientUnits="userSpaceOnUse">
<stop stop-color="#BE7D50"/>
<stop offset="1" stop-color="#BE7D50" stop-opacity="0"/>
</linearGradient>
<linearGradient id="paint87_linear_70_7556" x1="83.5003" y1="548.036" x2="95.9015" y2="-4.71507" gradientUnits="userSpaceOnUse">
<stop stop-color="#BE7D50"/>
<stop offset="1" stop-color="#BE7D50" stop-opacity="0"/>
</linearGradient>
<linearGradient id="paint88_linear_70_7556" x1="697.5" y1="548.036" x2="709.901" y2="-4.71506" gradientUnits="userSpaceOnUse">
<stop stop-color="#BE7D50"/>
<stop offset="1" stop-color="#BE7D50" stop-opacity="0"/>
</linearGradient>
<linearGradient id="paint89_linear_70_7556" x1="404.5" y1="548.036" x2="416.901" y2="-4.71506" gradientUnits="userSpaceOnUse">
<stop stop-color="#BE7D50"/>
<stop offset="1" stop-color="#BE7D50" stop-opacity="0"/>
</linearGradient>
<linearGradient id="paint90_linear_70_7556" x1="460.5" y1="548.036" x2="472.901" y2="-4.71506" gradientUnits="userSpaceOnUse">
<stop stop-color="#BE7D50"/>
<stop offset="1" stop-color="#BE7D50" stop-opacity="0"/>
</linearGradient>
<linearGradient id="paint91_linear_70_7556" x1="111.5" y1="548.036" x2="123.901" y2="-4.71507" gradientUnits="userSpaceOnUse">
<stop stop-color="#BE7D50"/>
<stop offset="1" stop-color="#BE7D50" stop-opacity="0"/>
</linearGradient>
<linearGradient id="paint92_linear_70_7556" x1="613.5" y1="548.036" x2="625.901" y2="-4.71506" gradientUnits="userSpaceOnUse">
<stop stop-color="#BE7D50"/>
<stop offset="1" stop-color="#BE7D50" stop-opacity="0"/>
</linearGradient>
<linearGradient id="paint93_linear_70_7556" x1="236.5" y1="548.036" x2="248.901" y2="-4.71506" gradientUnits="userSpaceOnUse">
<stop stop-color="#BE7D50"/>
<stop offset="1" stop-color="#BE7D50" stop-opacity="0"/>
</linearGradient>
<linearGradient id="paint94_linear_70_7556" x1="292.5" y1="548.036" x2="304.901" y2="-4.71506" gradientUnits="userSpaceOnUse">
<stop stop-color="#BE7D50"/>
<stop offset="1" stop-color="#BE7D50" stop-opacity="0"/>
</linearGradient>
<linearGradient id="paint95_linear_70_7556" x1="27.5003" y1="548.036" x2="39.9015" y2="-4.71507" gradientUnits="userSpaceOnUse">
<stop stop-color="#BE7D50"/>
<stop offset="1" stop-color="#BE7D50" stop-opacity="0"/>
</linearGradient>
<linearGradient id="paint96_linear_70_7556" x1="725.5" y1="548.036" x2="737.901" y2="-4.71506" gradientUnits="userSpaceOnUse">
<stop stop-color="#BE7D50"/>
<stop offset="1" stop-color="#BE7D50" stop-opacity="0"/>
</linearGradient>
<linearGradient id="paint97_linear_70_7556" x1="446.5" y1="548.036" x2="458.901" y2="-4.71506" gradientUnits="userSpaceOnUse">
<stop stop-color="#BE7D50"/>
<stop offset="1" stop-color="#BE7D50" stop-opacity="0"/>
</linearGradient>
<linearGradient id="paint98_linear_70_7556" x1="502.5" y1="548.036" x2="514.901" y2="-4.71506" gradientUnits="userSpaceOnUse">
<stop stop-color="#BE7D50"/>
<stop offset="1" stop-color="#BE7D50" stop-opacity="0"/>
</linearGradient>
<linearGradient id="paint99_linear_70_7556" x1="139.5" y1="548.036" x2="151.901" y2="-4.71507" gradientUnits="userSpaceOnUse">
<stop stop-color="#BE7D50"/>
<stop offset="1" stop-color="#BE7D50" stop-opacity="0"/>
</linearGradient>
<linearGradient id="paint100_linear_70_7556" x1="641.5" y1="548.036" x2="653.901" y2="-4.71506" gradientUnits="userSpaceOnUse">
<stop stop-color="#BE7D50"/>
<stop offset="1" stop-color="#BE7D50" stop-opacity="0"/>
</linearGradient>
<linearGradient id="paint101_linear_70_7556" x1="278.5" y1="548.036" x2="290.901" y2="-4.71506" gradientUnits="userSpaceOnUse">
<stop stop-color="#BE7D50"/>
<stop offset="1" stop-color="#BE7D50" stop-opacity="0"/>
</linearGradient>
<linearGradient id="paint102_linear_70_7556" x1="334.5" y1="548.036" x2="346.901" y2="-4.71506" gradientUnits="userSpaceOnUse">
<stop stop-color="#BE7D50"/>
<stop offset="1" stop-color="#BE7D50" stop-opacity="0"/>
</linearGradient>
<linearGradient id="paint103_linear_70_7556" x1="55.5003" y1="548.036" x2="67.9015" y2="-4.71508" gradientUnits="userSpaceOnUse">
<stop stop-color="#BE7D50"/>
<stop offset="1" stop-color="#BE7D50" stop-opacity="0"/>
</linearGradient>
<linearGradient id="paint104_linear_70_7556" x1="669.5" y1="548.036" x2="681.901" y2="-4.71506" gradientUnits="userSpaceOnUse">
<stop stop-color="#BE7D50"/>
<stop offset="1" stop-color="#BE7D50" stop-opacity="0"/>
</linearGradient>
<linearGradient id="paint105_linear_70_7556" x1="585.5" y1="548.036" x2="597.901" y2="-4.71506" gradientUnits="userSpaceOnUse">
<stop stop-color="#BE7D50"/>
<stop offset="1" stop-color="#BE7D50" stop-opacity="0"/>
</linearGradient>
<linearGradient id="paint106_linear_70_7556" x1="194.5" y1="548.036" x2="206.901" y2="-4.71506" gradientUnits="userSpaceOnUse">
<stop stop-color="#BE7D50"/>
<stop offset="1" stop-color="#BE7D50" stop-opacity="0"/>
</linearGradient>
<linearGradient id="paint107_linear_70_7556" x1="222.5" y1="548.036" x2="234.901" y2="-4.71506" gradientUnits="userSpaceOnUse">
<stop stop-color="#BE7D50"/>
<stop offset="1" stop-color="#BE7D50" stop-opacity="0"/>
</linearGradient>
<linearGradient id="paint108_linear_70_7556" x1="-0.49971" y1="548.036" x2="11.9015" y2="-4.71523" gradientUnits="userSpaceOnUse">
<stop stop-color="#BE7D50"/>
<stop offset="1" stop-color="#BE7D50" stop-opacity="0"/>
</linearGradient>
</defs>
</svg>
