<svg width="1509" height="633" viewBox="0 0 1509 633" fill="none" xmlns="http://www.w3.org/2000/svg">
<g opacity="0.4">
<line x1="181.25" y1="4.77726e-10" x2="181.25" y2="633" stroke="url(#paint0_linear_70_9203)" stroke-width="0.5"/>
<line x1="154.25" y1="4.92266e-10" x2="154.25" y2="633" stroke="url(#paint1_linear_70_9203)" stroke-width="0.5"/>
<line x1="545.25" y1="4.92266e-10" x2="545.25" y2="633" stroke="url(#paint2_linear_70_9203)" stroke-width="0.5"/>
<line x1="42.25" y1="4.92266e-10" x2="42.25" y2="633" stroke="url(#paint3_linear_70_9203)" stroke-width="0.5"/>
<line x1="307.25" y1="4.92266e-10" x2="307.25" y2="633" stroke="url(#paint4_linear_70_9203)" stroke-width="0.5"/>
<line x1="14.25" y1="4.92266e-10" x2="14.25" y2="633" stroke="url(#paint5_linear_70_9203)" stroke-width="0.5"/>
<line x1="293.25" y1="4.92266e-10" x2="293.25" y2="633" stroke="url(#paint6_linear_70_9203)" stroke-width="0.5"/>
<line x1="237.25" y1="4.92266e-10" x2="237.25" y2="633" stroke="url(#paint7_linear_70_9203)" stroke-width="0.5"/>
<line x1="600.25" y1="4.77726e-10" x2="600.25" y2="633" stroke="url(#paint8_linear_70_9203)" stroke-width="0.5"/>
<line x1="98.25" y1="4.92266e-10" x2="98.25" y2="633" stroke="url(#paint9_linear_70_9203)" stroke-width="0.5"/>
<line x1="461.25" y1="4.92266e-10" x2="461.25" y2="633" stroke="url(#paint10_linear_70_9203)" stroke-width="0.5"/>
<line x1="405.25" y1="4.92266e-10" x2="405.25" y2="633" stroke="url(#paint11_linear_70_9203)" stroke-width="0.5"/>
<line x1="684.25" y1="4.77726e-10" x2="684.25" y2="633" stroke="url(#paint12_linear_70_9203)" stroke-width="0.5"/>
<line x1="251.25" y1="4.92266e-10" x2="251.25" y2="633" stroke="url(#paint13_linear_70_9203)" stroke-width="0.5"/>
<line x1="195.25" y1="4.77726e-10" x2="195.25" y2="633" stroke="url(#paint14_linear_70_9203)" stroke-width="0.5"/>
<line x1="572.25" y1="4.77726e-10" x2="572.25" y2="633" stroke="url(#paint15_linear_70_9203)" stroke-width="0.5"/>
<line x1="70.25" y1="4.92266e-10" x2="70.25" y2="633" stroke="url(#paint16_linear_70_9203)" stroke-width="0.5"/>
<line x1="419.25" y1="4.92266e-10" x2="419.25" y2="633" stroke="url(#paint17_linear_70_9203)" stroke-width="0.5"/>
<line x1="363.25" y1="4.92266e-10" x2="363.25" y2="633" stroke="url(#paint18_linear_70_9203)" stroke-width="0.5"/>
<line x1="656.25" y1="4.77726e-10" x2="656.25" y2="633" stroke="url(#paint19_linear_70_9203)" stroke-width="0.5"/>
<line x1="349.25" y1="4.92266e-10" x2="349.25" y2="633" stroke="url(#paint20_linear_70_9203)" stroke-width="0.5"/>
<line x1="628.25" y1="4.77726e-10" x2="628.25" y2="633" stroke="url(#paint21_linear_70_9203)" stroke-width="0.5"/>
<line x1="126.25" y1="4.92266e-10" x2="126.25" y2="633" stroke="url(#paint22_linear_70_9203)" stroke-width="0.5"/>
<line x1="517.25" y1="4.92266e-10" x2="517.25" y2="633" stroke="url(#paint23_linear_70_9203)" stroke-width="0.5"/>
<line x1="475.25" y1="4.92266e-10" x2="475.25" y2="633" stroke="url(#paint24_linear_70_9203)" stroke-width="0.5"/>
<line x1="712.25" y1="4.77726e-10" x2="712.25" y2="633" stroke="url(#paint25_linear_70_9203)" stroke-width="0.5"/>
<line x1="209.25" y1="4.77726e-10" x2="209.25" y2="633" stroke="url(#paint26_linear_70_9203)" stroke-width="0.5"/>
<line x1="167.25" y1="4.77726e-10" x2="167.25" y2="633" stroke="url(#paint27_linear_70_9203)" stroke-width="0.5"/>
<line x1="558.25" y1="4.77726e-10" x2="558.25" y2="633" stroke="url(#paint28_linear_70_9203)" stroke-width="0.5"/>
<line x1="377.25" y1="4.92266e-10" x2="377.25" y2="633" stroke="url(#paint29_linear_70_9203)" stroke-width="0.5"/>
<line x1="335.25" y1="4.92266e-10" x2="335.25" y2="633" stroke="url(#paint30_linear_70_9203)" stroke-width="0.5"/>
<line x1="642.25" y1="4.77726e-10" x2="642.25" y2="633" stroke="url(#paint31_linear_70_9203)" stroke-width="0.5"/>
<line x1="28.25" y1="4.92266e-10" x2="28.25" y2="633" stroke="url(#paint32_linear_70_9203)" stroke-width="0.5"/>
<line x1="321.25" y1="4.92266e-10" x2="321.25" y2="633" stroke="url(#paint33_linear_70_9203)" stroke-width="0.5"/>
<line x1="265.25" y1="4.92266e-10" x2="265.25" y2="633" stroke="url(#paint34_linear_70_9203)" stroke-width="0.5"/>
<line x1="614.25" y1="4.77726e-10" x2="614.25" y2="633" stroke="url(#paint35_linear_70_9203)" stroke-width="0.5"/>
<line x1="112.25" y1="4.92266e-10" x2="112.25" y2="633" stroke="url(#paint36_linear_70_9203)" stroke-width="0.5"/>
<line x1="489.25" y1="4.92266e-10" x2="489.25" y2="633" stroke="url(#paint37_linear_70_9203)" stroke-width="0.5"/>
<line x1="433.25" y1="4.92266e-10" x2="433.25" y2="633" stroke="url(#paint38_linear_70_9203)" stroke-width="0.5"/>
<line x1="698.25" y1="4.77726e-10" x2="698.25" y2="633" stroke="url(#paint39_linear_70_9203)" stroke-width="0.5"/>
<line x1="0.25" y1="4.92266e-10" x2="0.250001" y2="633" stroke="url(#paint40_linear_70_9203)" stroke-width="0.5"/>
<line x1="279.25" y1="4.92266e-10" x2="279.25" y2="633" stroke="url(#paint41_linear_70_9203)" stroke-width="0.5"/>
<line x1="223.25" y1="4.77726e-10" x2="223.25" y2="633" stroke="url(#paint42_linear_70_9203)" stroke-width="0.5"/>
<line x1="586.25" y1="4.77726e-10" x2="586.25" y2="633" stroke="url(#paint43_linear_70_9203)" stroke-width="0.5"/>
<line x1="84.25" y1="4.92266e-10" x2="84.25" y2="633" stroke="url(#paint44_linear_70_9203)" stroke-width="0.5"/>
<line x1="447.25" y1="4.92266e-10" x2="447.25" y2="633" stroke="url(#paint45_linear_70_9203)" stroke-width="0.5"/>
<line x1="391.25" y1="4.92266e-10" x2="391.25" y2="633" stroke="url(#paint46_linear_70_9203)" stroke-width="0.5"/>
<line x1="670.25" y1="4.77726e-10" x2="670.25" y2="633" stroke="url(#paint47_linear_70_9203)" stroke-width="0.5"/>
<line x1="56.25" y1="4.92266e-10" x2="56.25" y2="633" stroke="url(#paint48_linear_70_9203)" stroke-width="0.5"/>
<line x1="140.25" y1="4.92266e-10" x2="140.25" y2="633" stroke="url(#paint49_linear_70_9203)" stroke-width="0.5"/>
<line x1="531.25" y1="4.92266e-10" x2="531.25" y2="633" stroke="url(#paint50_linear_70_9203)" stroke-width="0.5"/>
<line x1="503.25" y1="4.92266e-10" x2="503.25" y2="633" stroke="url(#paint51_linear_70_9203)" stroke-width="0.5"/>
<line x1="726.25" y1="4.77726e-10" x2="726.25" y2="633" stroke="url(#paint52_linear_70_9203)" stroke-width="0.5"/>
<line x1="740.25" y1="4.92266e-10" x2="740.25" y2="633" stroke="url(#paint53_linear_70_9203)" stroke-width="0.5"/>
<line x1="963.25" y1="4.63205e-10" x2="963.25" y2="633" stroke="url(#paint54_linear_70_9203)" stroke-width="0.5"/>
<line x1="935.25" y1="4.63205e-10" x2="935.25" y2="633" stroke="url(#paint55_linear_70_9203)" stroke-width="0.5"/>
<line x1="1326.25" y1="4.34219e-10" x2="1326.25" y2="633" stroke="url(#paint56_linear_70_9203)" stroke-width="0.5"/>
<line x1="824.25" y1="4.92266e-10" x2="824.25" y2="633" stroke="url(#paint57_linear_70_9203)" stroke-width="0.5"/>
<line x1="1089.25" y1="4.63205e-10" x2="1089.25" y2="633" stroke="url(#paint58_linear_70_9203)" stroke-width="0.5"/>
<line x1="796.25" y1="4.92266e-10" x2="796.25" y2="633" stroke="url(#paint59_linear_70_9203)" stroke-width="0.5"/>
<line x1="1075.25" y1="4.63205e-10" x2="1075.25" y2="633" stroke="url(#paint60_linear_70_9203)" stroke-width="0.5"/>
<line x1="1019.25" y1="4.63205e-10" x2="1019.25" y2="633" stroke="url(#paint61_linear_70_9203)" stroke-width="0.5"/>
<line x1="1382.25" y1="2.87575e-10" x2="1382.25" y2="633" stroke="url(#paint62_linear_70_9203)" stroke-width="0.5"/>
<line x1="880.25" y1="4.92266e-10" x2="880.25" y2="633" stroke="url(#paint63_linear_70_9203)" stroke-width="0.5"/>
<line x1="1243.25" y1="4.77726e-10" x2="1243.25" y2="633" stroke="url(#paint64_linear_70_9203)" stroke-width="0.5"/>
<line x1="1187.25" y1="4.77726e-10" x2="1187.25" y2="633" stroke="url(#paint65_linear_70_9203)" stroke-width="0.5"/>
<line x1="1466.25" y1="2.87575e-10" x2="1466.25" y2="633" stroke="url(#paint66_linear_70_9203)" stroke-width="0.5"/>
<line x1="768.25" y1="4.92266e-10" x2="768.25" y2="633" stroke="url(#paint67_linear_70_9203)" stroke-width="0.5"/>
<line x1="1033.25" y1="4.63205e-10" x2="1033.25" y2="633" stroke="url(#paint68_linear_70_9203)" stroke-width="0.5"/>
<line x1="977.25" y1="4.63205e-10" x2="977.25" y2="633" stroke="url(#paint69_linear_70_9203)" stroke-width="0.5"/>
<line x1="1354.25" y1="3.60655e-10" x2="1354.25" y2="633" stroke="url(#paint70_linear_70_9203)" stroke-width="0.5"/>
<line x1="852.25" y1="4.92266e-10" x2="852.25" y2="633" stroke="url(#paint71_linear_70_9203)" stroke-width="0.5"/>
<line x1="1201.25" y1="4.77726e-10" x2="1201.25" y2="633" stroke="url(#paint72_linear_70_9203)" stroke-width="0.5"/>
<line x1="1145.25" y1="4.77726e-10" x2="1145.25" y2="633" stroke="url(#paint73_linear_70_9203)" stroke-width="0.5"/>
<line x1="1438.25" y1="2.00511e-10" x2="1438.25" y2="633" stroke="url(#paint74_linear_70_9203)" stroke-width="0.5"/>
<line x1="1131.25" y1="4.77726e-10" x2="1131.25" y2="633" stroke="url(#paint75_linear_70_9203)" stroke-width="0.5"/>
<line x1="1410.25" y1="3.46e-10" x2="1410.25" y2="633" stroke="url(#paint76_linear_70_9203)" stroke-width="0.5"/>
<line x1="908.25" y1="4.92266e-10" x2="908.25" y2="633" stroke="url(#paint77_linear_70_9203)" stroke-width="0.5"/>
<line x1="1299.25" y1="4.33221e-10" x2="1299.25" y2="633" stroke="url(#paint78_linear_70_9203)" stroke-width="0.5"/>
<line x1="1257.25" y1="4.92266e-10" x2="1257.25" y2="633" stroke="url(#paint79_linear_70_9203)" stroke-width="0.5"/>
<line x1="1494.25" y1="0.000488281" x2="1494.25" y2="633" stroke="url(#paint80_linear_70_9203)" stroke-width="0.5"/>
<line x1="754.25" y1="4.92266e-10" x2="754.25" y2="633" stroke="url(#paint81_linear_70_9203)" stroke-width="0.5"/>
<line x1="991.25" y1="4.63205e-10" x2="991.25" y2="633" stroke="url(#paint82_linear_70_9203)" stroke-width="0.5"/>
<line x1="949.25" y1="4.63205e-10" x2="949.25" y2="633" stroke="url(#paint83_linear_70_9203)" stroke-width="0.5"/>
<line x1="1340.25" y1="3.31365e-10" x2="1340.25" y2="633" stroke="url(#paint84_linear_70_9203)" stroke-width="0.5"/>
<line x1="1159.25" y1="4.77726e-10" x2="1159.25" y2="633" stroke="url(#paint85_linear_70_9203)" stroke-width="0.5"/>
<line x1="1117.25" y1="4.63205e-10" x2="1117.25" y2="633" stroke="url(#paint86_linear_70_9203)" stroke-width="0.5"/>
<line x1="1424.25" y1="4.34219e-10" x2="1424.25" y2="633" stroke="url(#paint87_linear_70_9203)" stroke-width="0.5"/>
<line x1="810.25" y1="4.92266e-10" x2="810.25" y2="633" stroke="url(#paint88_linear_70_9203)" stroke-width="0.5"/>
<line x1="1103.25" y1="4.63205e-10" x2="1103.25" y2="633" stroke="url(#paint89_linear_70_9203)" stroke-width="0.5"/>
<line x1="1047.25" y1="4.63205e-10" x2="1047.25" y2="633" stroke="url(#paint90_linear_70_9203)" stroke-width="0.5"/>
<line x1="1396.25" y1="3.02152e-10" x2="1396.25" y2="633" stroke="url(#paint91_linear_70_9203)" stroke-width="0.5"/>
<line x1="894.25" y1="4.92266e-10" x2="894.25" y2="633" stroke="url(#paint92_linear_70_9203)" stroke-width="0.5"/>
<line x1="1271.25" y1="4.92266e-10" x2="1271.25" y2="633" stroke="url(#paint93_linear_70_9203)" stroke-width="0.5"/>
<line x1="1215.25" y1="4.77726e-10" x2="1215.25" y2="633" stroke="url(#paint94_linear_70_9203)" stroke-width="0.5"/>
<line x1="1480.25" y1="4.34219e-10" x2="1480.25" y2="633" stroke="url(#paint95_linear_70_9203)" stroke-width="0.5"/>
<line x1="782.25" y1="4.92266e-10" x2="782.25" y2="633" stroke="url(#paint96_linear_70_9203)" stroke-width="0.5"/>
<line x1="1061.25" y1="4.63205e-10" x2="1061.25" y2="633" stroke="url(#paint97_linear_70_9203)" stroke-width="0.5"/>
<line x1="1005.25" y1="4.63205e-10" x2="1005.25" y2="633" stroke="url(#paint98_linear_70_9203)" stroke-width="0.5"/>
<line x1="1368.25" y1="4.34219e-10" x2="1368.25" y2="633" stroke="url(#paint99_linear_70_9203)" stroke-width="0.5"/>
<line x1="866.25" y1="4.92266e-10" x2="866.25" y2="633" stroke="url(#paint100_linear_70_9203)" stroke-width="0.5"/>
<line x1="1229.25" y1="4.04019e-10" x2="1229.25" y2="633" stroke="url(#paint101_linear_70_9203)" stroke-width="0.5"/>
<line x1="1173.25" y1="4.77726e-10" x2="1173.25" y2="633" stroke="url(#paint102_linear_70_9203)" stroke-width="0.5"/>
<line x1="1452.25" y1="2.00511e-10" x2="1452.25" y2="633" stroke="url(#paint103_linear_70_9203)" stroke-width="0.5"/>
<line x1="838.25" y1="4.92266e-10" x2="838.25" y2="633" stroke="url(#paint104_linear_70_9203)" stroke-width="0.5"/>
<line x1="922.25" y1="4.92266e-10" x2="922.25" y2="633" stroke="url(#paint105_linear_70_9203)" stroke-width="0.5"/>
<line x1="1313.25" y1="4.92266e-10" x2="1313.25" y2="633" stroke="url(#paint106_linear_70_9203)" stroke-width="0.5"/>
<line x1="1285.25" y1="4.18511e-10" x2="1285.25" y2="633" stroke="url(#paint107_linear_70_9203)" stroke-width="0.5"/>
<line x1="1508.25" y1="0.000488281" x2="1508.25" y2="633" stroke="url(#paint108_linear_70_9203)" stroke-width="0.5"/>
</g>
<defs>
<linearGradient id="paint0_linear_70_9203" x1="182.5" y1="11.3035" x2="166.543" y2="638.258" gradientUnits="userSpaceOnUse">
<stop stop-color="#BE7D50"/>
<stop offset="1" stop-color="#BE7D50" stop-opacity="0"/>
</linearGradient>
<linearGradient id="paint1_linear_70_9203" x1="155.5" y1="11.3035" x2="139.543" y2="638.258" gradientUnits="userSpaceOnUse">
<stop stop-color="#BE7D50"/>
<stop offset="1" stop-color="#BE7D50" stop-opacity="0"/>
</linearGradient>
<linearGradient id="paint2_linear_70_9203" x1="546.5" y1="11.3035" x2="530.543" y2="638.258" gradientUnits="userSpaceOnUse">
<stop stop-color="#BE7D50"/>
<stop offset="1" stop-color="#BE7D50" stop-opacity="0"/>
</linearGradient>
<linearGradient id="paint3_linear_70_9203" x1="43.4997" y1="11.3035" x2="27.5432" y2="638.258" gradientUnits="userSpaceOnUse">
<stop stop-color="#BE7D50"/>
<stop offset="1" stop-color="#BE7D50" stop-opacity="0"/>
</linearGradient>
<linearGradient id="paint4_linear_70_9203" x1="308.5" y1="11.3035" x2="292.543" y2="638.258" gradientUnits="userSpaceOnUse">
<stop stop-color="#BE7D50"/>
<stop offset="1" stop-color="#BE7D50" stop-opacity="0"/>
</linearGradient>
<linearGradient id="paint5_linear_70_9203" x1="15.4997" y1="11.3035" x2="-0.45678" y2="638.258" gradientUnits="userSpaceOnUse">
<stop stop-color="#BE7D50"/>
<stop offset="1" stop-color="#BE7D50" stop-opacity="0"/>
</linearGradient>
<linearGradient id="paint6_linear_70_9203" x1="294.5" y1="11.3035" x2="278.543" y2="638.258" gradientUnits="userSpaceOnUse">
<stop stop-color="#BE7D50"/>
<stop offset="1" stop-color="#BE7D50" stop-opacity="0"/>
</linearGradient>
<linearGradient id="paint7_linear_70_9203" x1="238.5" y1="11.3035" x2="222.543" y2="638.258" gradientUnits="userSpaceOnUse">
<stop stop-color="#BE7D50"/>
<stop offset="1" stop-color="#BE7D50" stop-opacity="0"/>
</linearGradient>
<linearGradient id="paint8_linear_70_9203" x1="601.5" y1="11.3035" x2="585.543" y2="638.258" gradientUnits="userSpaceOnUse">
<stop stop-color="#BE7D50"/>
<stop offset="1" stop-color="#BE7D50" stop-opacity="0"/>
</linearGradient>
<linearGradient id="paint9_linear_70_9203" x1="99.4997" y1="11.3035" x2="83.5432" y2="638.258" gradientUnits="userSpaceOnUse">
<stop stop-color="#BE7D50"/>
<stop offset="1" stop-color="#BE7D50" stop-opacity="0"/>
</linearGradient>
<linearGradient id="paint10_linear_70_9203" x1="462.5" y1="11.3035" x2="446.543" y2="638.258" gradientUnits="userSpaceOnUse">
<stop stop-color="#BE7D50"/>
<stop offset="1" stop-color="#BE7D50" stop-opacity="0"/>
</linearGradient>
<linearGradient id="paint11_linear_70_9203" x1="406.5" y1="11.3035" x2="390.543" y2="638.258" gradientUnits="userSpaceOnUse">
<stop stop-color="#BE7D50"/>
<stop offset="1" stop-color="#BE7D50" stop-opacity="0"/>
</linearGradient>
<linearGradient id="paint12_linear_70_9203" x1="685.5" y1="11.3035" x2="669.543" y2="638.258" gradientUnits="userSpaceOnUse">
<stop stop-color="#BE7D50"/>
<stop offset="1" stop-color="#BE7D50" stop-opacity="0"/>
</linearGradient>
<linearGradient id="paint13_linear_70_9203" x1="252.5" y1="11.3035" x2="236.543" y2="638.258" gradientUnits="userSpaceOnUse">
<stop stop-color="#BE7D50"/>
<stop offset="1" stop-color="#BE7D50" stop-opacity="0"/>
</linearGradient>
<linearGradient id="paint14_linear_70_9203" x1="196.5" y1="11.3035" x2="180.543" y2="638.258" gradientUnits="userSpaceOnUse">
<stop stop-color="#BE7D50"/>
<stop offset="1" stop-color="#BE7D50" stop-opacity="0"/>
</linearGradient>
<linearGradient id="paint15_linear_70_9203" x1="573.5" y1="11.3035" x2="557.543" y2="638.258" gradientUnits="userSpaceOnUse">
<stop stop-color="#BE7D50"/>
<stop offset="1" stop-color="#BE7D50" stop-opacity="0"/>
</linearGradient>
<linearGradient id="paint16_linear_70_9203" x1="71.4997" y1="11.3035" x2="55.5432" y2="638.258" gradientUnits="userSpaceOnUse">
<stop stop-color="#BE7D50"/>
<stop offset="1" stop-color="#BE7D50" stop-opacity="0"/>
</linearGradient>
<linearGradient id="paint17_linear_70_9203" x1="420.5" y1="11.3035" x2="404.543" y2="638.258" gradientUnits="userSpaceOnUse">
<stop stop-color="#BE7D50"/>
<stop offset="1" stop-color="#BE7D50" stop-opacity="0"/>
</linearGradient>
<linearGradient id="paint18_linear_70_9203" x1="364.5" y1="11.3035" x2="348.543" y2="638.258" gradientUnits="userSpaceOnUse">
<stop stop-color="#BE7D50"/>
<stop offset="1" stop-color="#BE7D50" stop-opacity="0"/>
</linearGradient>
<linearGradient id="paint19_linear_70_9203" x1="657.5" y1="11.3035" x2="641.543" y2="638.258" gradientUnits="userSpaceOnUse">
<stop stop-color="#BE7D50"/>
<stop offset="1" stop-color="#BE7D50" stop-opacity="0"/>
</linearGradient>
<linearGradient id="paint20_linear_70_9203" x1="350.5" y1="11.3035" x2="334.543" y2="638.258" gradientUnits="userSpaceOnUse">
<stop stop-color="#BE7D50"/>
<stop offset="1" stop-color="#BE7D50" stop-opacity="0"/>
</linearGradient>
<linearGradient id="paint21_linear_70_9203" x1="629.5" y1="11.3035" x2="613.543" y2="638.258" gradientUnits="userSpaceOnUse">
<stop stop-color="#BE7D50"/>
<stop offset="1" stop-color="#BE7D50" stop-opacity="0"/>
</linearGradient>
<linearGradient id="paint22_linear_70_9203" x1="127.5" y1="11.3035" x2="111.543" y2="638.258" gradientUnits="userSpaceOnUse">
<stop stop-color="#BE7D50"/>
<stop offset="1" stop-color="#BE7D50" stop-opacity="0"/>
</linearGradient>
<linearGradient id="paint23_linear_70_9203" x1="518.5" y1="11.3035" x2="502.543" y2="638.258" gradientUnits="userSpaceOnUse">
<stop stop-color="#BE7D50"/>
<stop offset="1" stop-color="#BE7D50" stop-opacity="0"/>
</linearGradient>
<linearGradient id="paint24_linear_70_9203" x1="476.5" y1="11.3035" x2="460.543" y2="638.258" gradientUnits="userSpaceOnUse">
<stop stop-color="#BE7D50"/>
<stop offset="1" stop-color="#BE7D50" stop-opacity="0"/>
</linearGradient>
<linearGradient id="paint25_linear_70_9203" x1="713.5" y1="11.3035" x2="697.543" y2="638.258" gradientUnits="userSpaceOnUse">
<stop stop-color="#BE7D50"/>
<stop offset="1" stop-color="#BE7D50" stop-opacity="0"/>
</linearGradient>
<linearGradient id="paint26_linear_70_9203" x1="210.5" y1="11.3035" x2="194.543" y2="638.258" gradientUnits="userSpaceOnUse">
<stop stop-color="#BE7D50"/>
<stop offset="1" stop-color="#BE7D50" stop-opacity="0"/>
</linearGradient>
<linearGradient id="paint27_linear_70_9203" x1="168.5" y1="11.3035" x2="152.543" y2="638.258" gradientUnits="userSpaceOnUse">
<stop stop-color="#BE7D50"/>
<stop offset="1" stop-color="#BE7D50" stop-opacity="0"/>
</linearGradient>
<linearGradient id="paint28_linear_70_9203" x1="559.5" y1="11.3035" x2="543.543" y2="638.258" gradientUnits="userSpaceOnUse">
<stop stop-color="#BE7D50"/>
<stop offset="1" stop-color="#BE7D50" stop-opacity="0"/>
</linearGradient>
<linearGradient id="paint29_linear_70_9203" x1="378.5" y1="11.3035" x2="362.543" y2="638.258" gradientUnits="userSpaceOnUse">
<stop stop-color="#BE7D50"/>
<stop offset="1" stop-color="#BE7D50" stop-opacity="0"/>
</linearGradient>
<linearGradient id="paint30_linear_70_9203" x1="336.5" y1="11.3035" x2="320.543" y2="638.258" gradientUnits="userSpaceOnUse">
<stop stop-color="#BE7D50"/>
<stop offset="1" stop-color="#BE7D50" stop-opacity="0"/>
</linearGradient>
<linearGradient id="paint31_linear_70_9203" x1="643.5" y1="11.3035" x2="627.543" y2="638.258" gradientUnits="userSpaceOnUse">
<stop stop-color="#BE7D50"/>
<stop offset="1" stop-color="#BE7D50" stop-opacity="0"/>
</linearGradient>
<linearGradient id="paint32_linear_70_9203" x1="29.4997" y1="11.3035" x2="13.5432" y2="638.258" gradientUnits="userSpaceOnUse">
<stop stop-color="#BE7D50"/>
<stop offset="1" stop-color="#BE7D50" stop-opacity="0"/>
</linearGradient>
<linearGradient id="paint33_linear_70_9203" x1="322.5" y1="11.3035" x2="306.543" y2="638.258" gradientUnits="userSpaceOnUse">
<stop stop-color="#BE7D50"/>
<stop offset="1" stop-color="#BE7D50" stop-opacity="0"/>
</linearGradient>
<linearGradient id="paint34_linear_70_9203" x1="266.5" y1="11.3035" x2="250.543" y2="638.258" gradientUnits="userSpaceOnUse">
<stop stop-color="#BE7D50"/>
<stop offset="1" stop-color="#BE7D50" stop-opacity="0"/>
</linearGradient>
<linearGradient id="paint35_linear_70_9203" x1="615.5" y1="11.3035" x2="599.543" y2="638.258" gradientUnits="userSpaceOnUse">
<stop stop-color="#BE7D50"/>
<stop offset="1" stop-color="#BE7D50" stop-opacity="0"/>
</linearGradient>
<linearGradient id="paint36_linear_70_9203" x1="113.5" y1="11.3035" x2="97.5432" y2="638.258" gradientUnits="userSpaceOnUse">
<stop stop-color="#BE7D50"/>
<stop offset="1" stop-color="#BE7D50" stop-opacity="0"/>
</linearGradient>
<linearGradient id="paint37_linear_70_9203" x1="490.5" y1="11.3035" x2="474.543" y2="638.258" gradientUnits="userSpaceOnUse">
<stop stop-color="#BE7D50"/>
<stop offset="1" stop-color="#BE7D50" stop-opacity="0"/>
</linearGradient>
<linearGradient id="paint38_linear_70_9203" x1="434.5" y1="11.3035" x2="418.543" y2="638.258" gradientUnits="userSpaceOnUse">
<stop stop-color="#BE7D50"/>
<stop offset="1" stop-color="#BE7D50" stop-opacity="0"/>
</linearGradient>
<linearGradient id="paint39_linear_70_9203" x1="699.5" y1="11.3035" x2="683.543" y2="638.258" gradientUnits="userSpaceOnUse">
<stop stop-color="#BE7D50"/>
<stop offset="1" stop-color="#BE7D50" stop-opacity="0"/>
</linearGradient>
<linearGradient id="paint40_linear_70_9203" x1="1.49971" y1="11.3035" x2="-14.4568" y2="638.258" gradientUnits="userSpaceOnUse">
<stop stop-color="#BE7D50"/>
<stop offset="1" stop-color="#BE7D50" stop-opacity="0"/>
</linearGradient>
<linearGradient id="paint41_linear_70_9203" x1="280.5" y1="11.3035" x2="264.543" y2="638.258" gradientUnits="userSpaceOnUse">
<stop stop-color="#BE7D50"/>
<stop offset="1" stop-color="#BE7D50" stop-opacity="0"/>
</linearGradient>
<linearGradient id="paint42_linear_70_9203" x1="224.5" y1="11.3035" x2="208.543" y2="638.258" gradientUnits="userSpaceOnUse">
<stop stop-color="#BE7D50"/>
<stop offset="1" stop-color="#BE7D50" stop-opacity="0"/>
</linearGradient>
<linearGradient id="paint43_linear_70_9203" x1="587.5" y1="11.3035" x2="571.543" y2="638.258" gradientUnits="userSpaceOnUse">
<stop stop-color="#BE7D50"/>
<stop offset="1" stop-color="#BE7D50" stop-opacity="0"/>
</linearGradient>
<linearGradient id="paint44_linear_70_9203" x1="85.4997" y1="11.3035" x2="69.5432" y2="638.258" gradientUnits="userSpaceOnUse">
<stop stop-color="#BE7D50"/>
<stop offset="1" stop-color="#BE7D50" stop-opacity="0"/>
</linearGradient>
<linearGradient id="paint45_linear_70_9203" x1="448.5" y1="11.3035" x2="432.543" y2="638.258" gradientUnits="userSpaceOnUse">
<stop stop-color="#BE7D50"/>
<stop offset="1" stop-color="#BE7D50" stop-opacity="0"/>
</linearGradient>
<linearGradient id="paint46_linear_70_9203" x1="392.5" y1="11.3035" x2="376.543" y2="638.258" gradientUnits="userSpaceOnUse">
<stop stop-color="#BE7D50"/>
<stop offset="1" stop-color="#BE7D50" stop-opacity="0"/>
</linearGradient>
<linearGradient id="paint47_linear_70_9203" x1="671.5" y1="11.3035" x2="655.543" y2="638.258" gradientUnits="userSpaceOnUse">
<stop stop-color="#BE7D50"/>
<stop offset="1" stop-color="#BE7D50" stop-opacity="0"/>
</linearGradient>
<linearGradient id="paint48_linear_70_9203" x1="57.4997" y1="11.3035" x2="41.5432" y2="638.258" gradientUnits="userSpaceOnUse">
<stop stop-color="#BE7D50"/>
<stop offset="1" stop-color="#BE7D50" stop-opacity="0"/>
</linearGradient>
<linearGradient id="paint49_linear_70_9203" x1="141.5" y1="11.3035" x2="125.543" y2="638.258" gradientUnits="userSpaceOnUse">
<stop stop-color="#BE7D50"/>
<stop offset="1" stop-color="#BE7D50" stop-opacity="0"/>
</linearGradient>
<linearGradient id="paint50_linear_70_9203" x1="532.5" y1="11.3035" x2="516.543" y2="638.258" gradientUnits="userSpaceOnUse">
<stop stop-color="#BE7D50"/>
<stop offset="1" stop-color="#BE7D50" stop-opacity="0"/>
</linearGradient>
<linearGradient id="paint51_linear_70_9203" x1="504.5" y1="11.3035" x2="488.543" y2="638.258" gradientUnits="userSpaceOnUse">
<stop stop-color="#BE7D50"/>
<stop offset="1" stop-color="#BE7D50" stop-opacity="0"/>
</linearGradient>
<linearGradient id="paint52_linear_70_9203" x1="727.5" y1="11.3035" x2="711.543" y2="638.258" gradientUnits="userSpaceOnUse">
<stop stop-color="#BE7D50"/>
<stop offset="1" stop-color="#BE7D50" stop-opacity="0"/>
</linearGradient>
<linearGradient id="paint53_linear_70_9203" x1="741.5" y1="11.3035" x2="725.543" y2="638.258" gradientUnits="userSpaceOnUse">
<stop stop-color="#BE7D50"/>
<stop offset="1" stop-color="#BE7D50" stop-opacity="0"/>
</linearGradient>
<linearGradient id="paint54_linear_70_9203" x1="964.5" y1="11.3035" x2="948.543" y2="638.258" gradientUnits="userSpaceOnUse">
<stop stop-color="#BE7D50"/>
<stop offset="1" stop-color="#BE7D50" stop-opacity="0"/>
</linearGradient>
<linearGradient id="paint55_linear_70_9203" x1="936.5" y1="11.3035" x2="920.543" y2="638.258" gradientUnits="userSpaceOnUse">
<stop stop-color="#BE7D50"/>
<stop offset="1" stop-color="#BE7D50" stop-opacity="0"/>
</linearGradient>
<linearGradient id="paint56_linear_70_9203" x1="1327.5" y1="11.3035" x2="1311.54" y2="638.258" gradientUnits="userSpaceOnUse">
<stop stop-color="#BE7D50"/>
<stop offset="1" stop-color="#BE7D50" stop-opacity="0"/>
</linearGradient>
<linearGradient id="paint57_linear_70_9203" x1="825.5" y1="11.3035" x2="809.543" y2="638.258" gradientUnits="userSpaceOnUse">
<stop stop-color="#BE7D50"/>
<stop offset="1" stop-color="#BE7D50" stop-opacity="0"/>
</linearGradient>
<linearGradient id="paint58_linear_70_9203" x1="1090.5" y1="11.3035" x2="1074.54" y2="638.258" gradientUnits="userSpaceOnUse">
<stop stop-color="#BE7D50"/>
<stop offset="1" stop-color="#BE7D50" stop-opacity="0"/>
</linearGradient>
<linearGradient id="paint59_linear_70_9203" x1="797.5" y1="11.3035" x2="781.543" y2="638.258" gradientUnits="userSpaceOnUse">
<stop stop-color="#BE7D50"/>
<stop offset="1" stop-color="#BE7D50" stop-opacity="0"/>
</linearGradient>
<linearGradient id="paint60_linear_70_9203" x1="1076.5" y1="11.3035" x2="1060.54" y2="638.258" gradientUnits="userSpaceOnUse">
<stop stop-color="#BE7D50"/>
<stop offset="1" stop-color="#BE7D50" stop-opacity="0"/>
</linearGradient>
<linearGradient id="paint61_linear_70_9203" x1="1020.5" y1="11.3035" x2="1004.54" y2="638.258" gradientUnits="userSpaceOnUse">
<stop stop-color="#BE7D50"/>
<stop offset="1" stop-color="#BE7D50" stop-opacity="0"/>
</linearGradient>
<linearGradient id="paint62_linear_70_9203" x1="1383.5" y1="11.3035" x2="1367.54" y2="638.258" gradientUnits="userSpaceOnUse">
<stop stop-color="#BE7D50"/>
<stop offset="1" stop-color="#BE7D50" stop-opacity="0"/>
</linearGradient>
<linearGradient id="paint63_linear_70_9203" x1="881.5" y1="11.3035" x2="865.543" y2="638.258" gradientUnits="userSpaceOnUse">
<stop stop-color="#BE7D50"/>
<stop offset="1" stop-color="#BE7D50" stop-opacity="0"/>
</linearGradient>
<linearGradient id="paint64_linear_70_9203" x1="1244.5" y1="11.3035" x2="1228.54" y2="638.258" gradientUnits="userSpaceOnUse">
<stop stop-color="#BE7D50"/>
<stop offset="1" stop-color="#BE7D50" stop-opacity="0"/>
</linearGradient>
<linearGradient id="paint65_linear_70_9203" x1="1188.5" y1="11.3035" x2="1172.54" y2="638.258" gradientUnits="userSpaceOnUse">
<stop stop-color="#BE7D50"/>
<stop offset="1" stop-color="#BE7D50" stop-opacity="0"/>
</linearGradient>
<linearGradient id="paint66_linear_70_9203" x1="1467.5" y1="11.3035" x2="1451.54" y2="638.258" gradientUnits="userSpaceOnUse">
<stop stop-color="#BE7D50"/>
<stop offset="1" stop-color="#BE7D50" stop-opacity="0"/>
</linearGradient>
<linearGradient id="paint67_linear_70_9203" x1="769.5" y1="11.3035" x2="753.543" y2="638.258" gradientUnits="userSpaceOnUse">
<stop stop-color="#BE7D50"/>
<stop offset="1" stop-color="#BE7D50" stop-opacity="0"/>
</linearGradient>
<linearGradient id="paint68_linear_70_9203" x1="1034.5" y1="11.3035" x2="1018.54" y2="638.258" gradientUnits="userSpaceOnUse">
<stop stop-color="#BE7D50"/>
<stop offset="1" stop-color="#BE7D50" stop-opacity="0"/>
</linearGradient>
<linearGradient id="paint69_linear_70_9203" x1="978.5" y1="11.3035" x2="962.543" y2="638.258" gradientUnits="userSpaceOnUse">
<stop stop-color="#BE7D50"/>
<stop offset="1" stop-color="#BE7D50" stop-opacity="0"/>
</linearGradient>
<linearGradient id="paint70_linear_70_9203" x1="1355.5" y1="11.3035" x2="1339.54" y2="638.258" gradientUnits="userSpaceOnUse">
<stop stop-color="#BE7D50"/>
<stop offset="1" stop-color="#BE7D50" stop-opacity="0"/>
</linearGradient>
<linearGradient id="paint71_linear_70_9203" x1="853.5" y1="11.3035" x2="837.543" y2="638.258" gradientUnits="userSpaceOnUse">
<stop stop-color="#BE7D50"/>
<stop offset="1" stop-color="#BE7D50" stop-opacity="0"/>
</linearGradient>
<linearGradient id="paint72_linear_70_9203" x1="1202.5" y1="11.3035" x2="1186.54" y2="638.258" gradientUnits="userSpaceOnUse">
<stop stop-color="#BE7D50"/>
<stop offset="1" stop-color="#BE7D50" stop-opacity="0"/>
</linearGradient>
<linearGradient id="paint73_linear_70_9203" x1="1146.5" y1="11.3035" x2="1130.54" y2="638.258" gradientUnits="userSpaceOnUse">
<stop stop-color="#BE7D50"/>
<stop offset="1" stop-color="#BE7D50" stop-opacity="0"/>
</linearGradient>
<linearGradient id="paint74_linear_70_9203" x1="1439.5" y1="11.3035" x2="1423.54" y2="638.258" gradientUnits="userSpaceOnUse">
<stop stop-color="#BE7D50"/>
<stop offset="1" stop-color="#BE7D50" stop-opacity="0"/>
</linearGradient>
<linearGradient id="paint75_linear_70_9203" x1="1132.5" y1="11.3035" x2="1116.54" y2="638.258" gradientUnits="userSpaceOnUse">
<stop stop-color="#BE7D50"/>
<stop offset="1" stop-color="#BE7D50" stop-opacity="0"/>
</linearGradient>
<linearGradient id="paint76_linear_70_9203" x1="1411.5" y1="11.3035" x2="1395.54" y2="638.258" gradientUnits="userSpaceOnUse">
<stop stop-color="#BE7D50"/>
<stop offset="1" stop-color="#BE7D50" stop-opacity="0"/>
</linearGradient>
<linearGradient id="paint77_linear_70_9203" x1="909.5" y1="11.3035" x2="893.543" y2="638.258" gradientUnits="userSpaceOnUse">
<stop stop-color="#BE7D50"/>
<stop offset="1" stop-color="#BE7D50" stop-opacity="0"/>
</linearGradient>
<linearGradient id="paint78_linear_70_9203" x1="1300.5" y1="11.3035" x2="1284.54" y2="638.258" gradientUnits="userSpaceOnUse">
<stop stop-color="#BE7D50"/>
<stop offset="1" stop-color="#BE7D50" stop-opacity="0"/>
</linearGradient>
<linearGradient id="paint79_linear_70_9203" x1="1258.5" y1="11.3035" x2="1242.54" y2="638.258" gradientUnits="userSpaceOnUse">
<stop stop-color="#BE7D50"/>
<stop offset="1" stop-color="#BE7D50" stop-opacity="0"/>
</linearGradient>
<linearGradient id="paint80_linear_70_9203" x1="1495.5" y1="11.304" x2="1479.54" y2="638.259" gradientUnits="userSpaceOnUse">
<stop stop-color="#BE7D50"/>
<stop offset="1" stop-color="#BE7D50" stop-opacity="0"/>
</linearGradient>
<linearGradient id="paint81_linear_70_9203" x1="755.5" y1="11.3035" x2="739.543" y2="638.258" gradientUnits="userSpaceOnUse">
<stop stop-color="#BE7D50"/>
<stop offset="1" stop-color="#BE7D50" stop-opacity="0"/>
</linearGradient>
<linearGradient id="paint82_linear_70_9203" x1="992.5" y1="11.3035" x2="976.543" y2="638.258" gradientUnits="userSpaceOnUse">
<stop stop-color="#BE7D50"/>
<stop offset="1" stop-color="#BE7D50" stop-opacity="0"/>
</linearGradient>
<linearGradient id="paint83_linear_70_9203" x1="950.5" y1="11.3035" x2="934.543" y2="638.258" gradientUnits="userSpaceOnUse">
<stop stop-color="#BE7D50"/>
<stop offset="1" stop-color="#BE7D50" stop-opacity="0"/>
</linearGradient>
<linearGradient id="paint84_linear_70_9203" x1="1341.5" y1="11.3035" x2="1325.54" y2="638.258" gradientUnits="userSpaceOnUse">
<stop stop-color="#BE7D50"/>
<stop offset="1" stop-color="#BE7D50" stop-opacity="0"/>
</linearGradient>
<linearGradient id="paint85_linear_70_9203" x1="1160.5" y1="11.3035" x2="1144.54" y2="638.258" gradientUnits="userSpaceOnUse">
<stop stop-color="#BE7D50"/>
<stop offset="1" stop-color="#BE7D50" stop-opacity="0"/>
</linearGradient>
<linearGradient id="paint86_linear_70_9203" x1="1118.5" y1="11.3035" x2="1102.54" y2="638.258" gradientUnits="userSpaceOnUse">
<stop stop-color="#BE7D50"/>
<stop offset="1" stop-color="#BE7D50" stop-opacity="0"/>
</linearGradient>
<linearGradient id="paint87_linear_70_9203" x1="1425.5" y1="11.3035" x2="1409.54" y2="638.258" gradientUnits="userSpaceOnUse">
<stop stop-color="#BE7D50"/>
<stop offset="1" stop-color="#BE7D50" stop-opacity="0"/>
</linearGradient>
<linearGradient id="paint88_linear_70_9203" x1="811.5" y1="11.3035" x2="795.543" y2="638.258" gradientUnits="userSpaceOnUse">
<stop stop-color="#BE7D50"/>
<stop offset="1" stop-color="#BE7D50" stop-opacity="0"/>
</linearGradient>
<linearGradient id="paint89_linear_70_9203" x1="1104.5" y1="11.3035" x2="1088.54" y2="638.258" gradientUnits="userSpaceOnUse">
<stop stop-color="#BE7D50"/>
<stop offset="1" stop-color="#BE7D50" stop-opacity="0"/>
</linearGradient>
<linearGradient id="paint90_linear_70_9203" x1="1048.5" y1="11.3035" x2="1032.54" y2="638.258" gradientUnits="userSpaceOnUse">
<stop stop-color="#BE7D50"/>
<stop offset="1" stop-color="#BE7D50" stop-opacity="0"/>
</linearGradient>
<linearGradient id="paint91_linear_70_9203" x1="1397.5" y1="11.3035" x2="1381.54" y2="638.258" gradientUnits="userSpaceOnUse">
<stop stop-color="#BE7D50"/>
<stop offset="1" stop-color="#BE7D50" stop-opacity="0"/>
</linearGradient>
<linearGradient id="paint92_linear_70_9203" x1="895.5" y1="11.3035" x2="879.543" y2="638.258" gradientUnits="userSpaceOnUse">
<stop stop-color="#BE7D50"/>
<stop offset="1" stop-color="#BE7D50" stop-opacity="0"/>
</linearGradient>
<linearGradient id="paint93_linear_70_9203" x1="1272.5" y1="11.3035" x2="1256.54" y2="638.258" gradientUnits="userSpaceOnUse">
<stop stop-color="#BE7D50"/>
<stop offset="1" stop-color="#BE7D50" stop-opacity="0"/>
</linearGradient>
<linearGradient id="paint94_linear_70_9203" x1="1216.5" y1="11.3035" x2="1200.54" y2="638.258" gradientUnits="userSpaceOnUse">
<stop stop-color="#BE7D50"/>
<stop offset="1" stop-color="#BE7D50" stop-opacity="0"/>
</linearGradient>
<linearGradient id="paint95_linear_70_9203" x1="1481.5" y1="11.3035" x2="1465.54" y2="638.258" gradientUnits="userSpaceOnUse">
<stop stop-color="#BE7D50"/>
<stop offset="1" stop-color="#BE7D50" stop-opacity="0"/>
</linearGradient>
<linearGradient id="paint96_linear_70_9203" x1="783.5" y1="11.3035" x2="767.543" y2="638.258" gradientUnits="userSpaceOnUse">
<stop stop-color="#BE7D50"/>
<stop offset="1" stop-color="#BE7D50" stop-opacity="0"/>
</linearGradient>
<linearGradient id="paint97_linear_70_9203" x1="1062.5" y1="11.3035" x2="1046.54" y2="638.258" gradientUnits="userSpaceOnUse">
<stop stop-color="#BE7D50"/>
<stop offset="1" stop-color="#BE7D50" stop-opacity="0"/>
</linearGradient>
<linearGradient id="paint98_linear_70_9203" x1="1006.5" y1="11.3035" x2="990.543" y2="638.258" gradientUnits="userSpaceOnUse">
<stop stop-color="#BE7D50"/>
<stop offset="1" stop-color="#BE7D50" stop-opacity="0"/>
</linearGradient>
<linearGradient id="paint99_linear_70_9203" x1="1369.5" y1="11.3035" x2="1353.54" y2="638.258" gradientUnits="userSpaceOnUse">
<stop stop-color="#BE7D50"/>
<stop offset="1" stop-color="#BE7D50" stop-opacity="0"/>
</linearGradient>
<linearGradient id="paint100_linear_70_9203" x1="867.5" y1="11.3035" x2="851.543" y2="638.258" gradientUnits="userSpaceOnUse">
<stop stop-color="#BE7D50"/>
<stop offset="1" stop-color="#BE7D50" stop-opacity="0"/>
</linearGradient>
<linearGradient id="paint101_linear_70_9203" x1="1230.5" y1="11.3035" x2="1214.54" y2="638.258" gradientUnits="userSpaceOnUse">
<stop stop-color="#BE7D50"/>
<stop offset="1" stop-color="#BE7D50" stop-opacity="0"/>
</linearGradient>
<linearGradient id="paint102_linear_70_9203" x1="1174.5" y1="11.3035" x2="1158.54" y2="638.258" gradientUnits="userSpaceOnUse">
<stop stop-color="#BE7D50"/>
<stop offset="1" stop-color="#BE7D50" stop-opacity="0"/>
</linearGradient>
<linearGradient id="paint103_linear_70_9203" x1="1453.5" y1="11.3035" x2="1437.54" y2="638.258" gradientUnits="userSpaceOnUse">
<stop stop-color="#BE7D50"/>
<stop offset="1" stop-color="#BE7D50" stop-opacity="0"/>
</linearGradient>
<linearGradient id="paint104_linear_70_9203" x1="839.5" y1="11.3035" x2="823.543" y2="638.258" gradientUnits="userSpaceOnUse">
<stop stop-color="#BE7D50"/>
<stop offset="1" stop-color="#BE7D50" stop-opacity="0"/>
</linearGradient>
<linearGradient id="paint105_linear_70_9203" x1="923.5" y1="11.3035" x2="907.543" y2="638.258" gradientUnits="userSpaceOnUse">
<stop stop-color="#BE7D50"/>
<stop offset="1" stop-color="#BE7D50" stop-opacity="0"/>
</linearGradient>
<linearGradient id="paint106_linear_70_9203" x1="1314.5" y1="11.3035" x2="1298.54" y2="638.258" gradientUnits="userSpaceOnUse">
<stop stop-color="#BE7D50"/>
<stop offset="1" stop-color="#BE7D50" stop-opacity="0"/>
</linearGradient>
<linearGradient id="paint107_linear_70_9203" x1="1286.5" y1="11.3035" x2="1270.54" y2="638.258" gradientUnits="userSpaceOnUse">
<stop stop-color="#BE7D50"/>
<stop offset="1" stop-color="#BE7D50" stop-opacity="0"/>
</linearGradient>
<linearGradient id="paint108_linear_70_9203" x1="1509.5" y1="11.304" x2="1493.54" y2="638.259" gradientUnits="userSpaceOnUse">
<stop stop-color="#BE7D50"/>
<stop offset="1" stop-color="#BE7D50" stop-opacity="0"/>
</linearGradient>
</defs>
</svg>
