<svg width="60" height="60" viewBox="0 0 60 60" fill="none" xmlns="http://www.w3.org/2000/svg">
<path fill-rule="evenodd" clip-rule="evenodd" d="M30.4074 51.6851C18.2742 51.6851 8.43281 41.9734 8.43281 30C8.43281 18.0266 18.2742 8.31485 30.4074 8.31485C38.7237 8.31485 46.0079 13.0003 49.6859 19.8311C50.2113 20.8069 50.6632 21.8265 51.0339 22.8825H59.8642C56.6287 9.77827 44.6303 0 30.4074 0C13.6231 0 0.00695801 13.5033 0.00695801 30C0.00695801 46.4967 13.6231 60 30.4074 60C44.6303 60 56.6287 50.2217 59.8642 37.1175H51.1013C48.1354 45.5654 39.9792 51.6851 30.4074 51.6851ZM25.8947 24H34.334C35.3302 24 36.1381 24.8088 36.1386 25.8065L36.1421 34.1935C36.1425 35.1912 35.3352 36 34.339 36H25.8997C24.9035 36 24.0955 35.1912 24.0951 34.1935L24.0916 25.8065C24.0912 24.8088 24.8985 24 25.8947 24Z" fill="url(#paint0_linear_417_11946)"/>
<defs>
<linearGradient id="paint0_linear_417_11946" x1="35.897" y1="54.9785" x2="7.65257" y2="11.5342" gradientUnits="userSpaceOnUse">
<stop stop-color="#2954FF"/>
<stop offset="1" stop-color="#849DFF"/>
</linearGradient>
</defs>
</svg>
