<svg width="153" height="32" viewBox="0 0 153 32" fill="none" xmlns="http://www.w3.org/2000/svg">
<path fill-rule="evenodd" clip-rule="evenodd" d="M4.47813 16C4.47813 22.3858 9.70859 27.5654 16.1571 27.5654C21.2443 27.5654 25.5791 24.3015 27.1554 19.796H31.8126C30.093 26.7849 23.7162 32 16.1571 32C7.23666 32 0 24.7982 0 16C0 7.20177 7.23666 0 16.1571 0C23.7162 0 30.093 5.21508 31.8126 12.204H27.1196C25.5433 7.69845 21.2084 4.43459 16.1571 4.43459C9.70859 4.43459 4.47813 9.61419 4.47813 16ZM13.704 12.7621L18.3961 12.6631C18.9499 12.6514 19.4085 13.0866 19.4203 13.6351L19.5195 18.246C19.5312 18.7945 19.0918 19.2486 18.5379 19.2603L13.8459 19.3592C13.292 19.3709 12.8335 18.9357 12.8217 18.3873L12.7225 13.7763C12.7107 13.2278 13.1502 12.7737 13.704 12.7621Z" fill="white"/>
<path d="M50.2796 26.3285C47.3776 26.3285 44.9592 25.3703 43.0245 23.4539C41.1081 21.5192 40.1499 19.1282 40.1499 16.2809C40.1499 13.4336 41.1081 11.0517 43.0245 9.13529C44.9592 7.20059 47.3776 6.23324 50.2796 6.23324C52.5794 6.23324 54.5871 6.89031 56.3028 8.20444C58.0367 9.50032 59.15 11.1247 59.6428 13.0777H56.1932C55.7735 11.9643 55.0251 11.0609 53.9483 10.3673C52.8714 9.67372 51.6485 9.32693 50.2796 9.32693C48.2719 9.32693 46.6201 9.99312 45.3243 11.3255C44.0284 12.6579 43.3804 14.3097 43.3804 16.2809C43.3804 18.2521 44.0284 19.9039 45.3243 21.2363C46.6201 22.5687 48.2719 23.2348 50.2796 23.2348C51.6485 23.2348 52.8714 22.8881 53.9483 22.1945C55.0251 21.5009 55.7735 20.5975 56.1932 19.4841H59.6428C59.15 21.437 58.0367 23.0706 56.3028 24.3847C54.5871 25.6806 52.5794 26.3285 50.2796 26.3285ZM73.8014 24.2204C72.4325 25.5893 70.7351 26.2738 68.7092 26.2738C66.6832 26.2738 64.9767 25.5893 63.5895 24.2204C62.2206 22.8333 61.5362 21.145 61.5362 19.1556C61.5362 17.1661 62.2206 15.4869 63.5895 14.118C64.9767 12.7309 66.6832 12.0373 68.7092 12.0373C70.7351 12.0373 72.4325 12.7309 73.8014 14.118C75.1886 15.4869 75.8822 17.1661 75.8822 19.1556C75.8822 21.145 75.1886 22.8333 73.8014 24.2204ZM68.7092 23.4812C69.8955 23.4812 70.872 23.0706 71.6386 22.2492C72.4234 21.4097 72.8158 20.3784 72.8158 19.1556C72.8158 17.9327 72.4234 16.9106 71.6386 16.0892C70.872 15.2497 69.8955 14.8299 68.7092 14.8299C67.5045 14.8299 66.5098 15.2497 65.725 16.0892C64.9584 16.9106 64.5751 17.9327 64.5751 19.1556C64.5751 20.3784 64.9584 21.4097 65.725 22.2492C66.5098 23.0706 67.5045 23.4812 68.7092 23.4812ZM81.9226 31.722H78.911V12.3111H81.9226V14.1454C82.3424 13.5614 82.9447 13.0686 83.7295 12.667C84.5326 12.2472 85.3996 12.0373 86.3304 12.0373C88.1921 12.0373 89.7526 12.7309 91.012 14.118C92.2896 15.5052 92.9285 17.1844 92.9285 19.1556C92.9285 21.1268 92.2896 22.8059 91.012 24.1931C89.7526 25.5802 88.1921 26.2738 86.3304 26.2738C85.3996 26.2738 84.5326 26.073 83.7295 25.6715C82.9447 25.2517 82.3424 24.7497 81.9226 24.1657V31.722ZM85.7829 23.536C86.9692 23.536 87.9457 23.1162 88.7123 22.2766C89.4789 21.437 89.8621 20.3967 89.8621 19.1556C89.8621 17.9144 89.4789 16.8741 88.7123 16.0345C87.9457 15.1949 86.9692 14.7751 85.7829 14.7751C84.5782 14.7751 83.5926 15.1949 82.8261 16.0345C82.0595 16.8741 81.6762 17.9144 81.6762 19.1556C81.6762 20.3967 82.0595 21.437 82.8261 22.2766C83.5926 23.1162 84.5782 23.536 85.7829 23.536ZM99.007 31.722H95.9954V12.3111H99.007V14.1454C99.4268 13.5614 100.029 13.0686 100.814 12.667C101.617 12.2472 102.484 12.0373 103.415 12.0373C105.276 12.0373 106.837 12.7309 108.096 14.118C109.374 15.5052 110.013 17.1844 110.013 19.1556C110.013 21.1268 109.374 22.8059 108.096 24.1931C106.837 25.5802 105.276 26.2738 103.415 26.2738C102.484 26.2738 101.617 26.073 100.814 25.6715C100.029 25.2517 99.4268 24.7497 99.007 24.1657V31.722ZM102.867 23.536C104.054 23.536 105.03 23.1162 105.797 22.2766C106.563 21.437 106.947 20.3967 106.947 19.1556C106.947 17.9144 106.563 16.8741 105.797 16.0345C105.03 15.1949 104.054 14.7751 102.867 14.7751C101.663 14.7751 100.677 15.1949 99.9104 16.0345C99.1439 16.8741 98.7606 17.9144 98.7606 19.1556C98.7606 20.3967 99.1439 21.437 99.9104 22.2766C100.677 23.1162 101.663 23.536 102.867 23.536ZM119.13 26.2738C117.086 26.2738 115.407 25.6076 114.093 24.2752C112.779 22.9246 112.122 21.218 112.122 19.1556C112.122 17.0931 112.77 15.3957 114.065 14.0633C115.361 12.7126 117.059 12.0373 119.158 12.0373C121.275 12.0373 122.981 12.7765 124.277 14.2549C125.573 15.7151 126.148 17.595 126.002 19.8948H115.106C115.142 20.9534 115.544 21.8386 116.31 22.5504C117.077 23.2622 118.053 23.6181 119.24 23.6181C120.919 23.6181 122.069 22.9793 122.689 21.7017H125.838C125.418 23.0341 124.615 24.1292 123.429 24.987C122.242 25.8449 120.809 26.2738 119.13 26.2738ZM119.076 14.5561C118.09 14.5561 117.241 14.839 116.529 15.4048C115.836 15.9524 115.389 16.7372 115.188 17.7593H122.772C122.553 16.7007 122.105 15.9067 121.43 15.3774C120.755 14.8299 119.97 14.5561 119.076 14.5561ZM129.095 26V12.3111H132.106V14.7477C132.362 13.9812 132.827 13.3606 133.503 12.886C134.196 12.4115 134.935 12.1742 135.72 12.1742C136.195 12.1742 136.587 12.2107 136.897 12.2837V15.3774C136.459 15.2132 135.957 15.131 135.392 15.131C134.479 15.131 133.703 15.5052 133.064 16.2535C132.426 16.9836 132.106 18.0057 132.106 19.3198V26H129.095ZM148.667 26L144.971 21.3732L141.275 26H137.606L143.054 19.1829L137.907 12.3111H141.494L144.943 16.9106L148.393 12.3111H152.007L146.86 19.1829L152.308 26H148.667Z" fill="white"/>
</svg>
