<svg width="50" height="42" viewBox="0 0 50 42" fill="none" xmlns="http://www.w3.org/2000/svg">
<path fill-rule="evenodd" clip-rule="evenodd" d="M45.3125 0H4.6875C3.4443 0 2.25201 0.491665 1.37294 1.36684C0.49386 2.242 0 3.42899 0 4.66667V37.3333C0 38.571 0.49386 39.758 1.37294 40.6332C2.25201 41.5083 3.4443 42 4.6875 42H45.3125C46.5557 42 47.748 41.5083 48.6271 40.6332C49.5061 39.758 50 38.571 50 37.3333V4.66667C50 3.42899 49.5061 2.242 48.6271 1.36684C47.748 0.491665 46.5557 0 45.3125 0ZM42.1875 4.66667H45.3125V7.77778H42.1875V4.66667ZM37.5 4.66667H40.625V7.77778H37.5V4.66667ZM32.8125 4.66667H35.9375V7.77778H32.8125V4.66667ZM46.875 37.3333C46.875 37.7459 46.7104 38.1416 46.4174 38.4333C46.1243 38.725 45.7269 38.8889 45.3125 38.8889H4.6875C4.2731 38.8889 3.87567 38.725 3.58265 38.4333C3.28962 38.1416 3.125 37.7459 3.125 37.3333V12.4444H46.875V37.3333ZM17.9449 16L9.41176 24.8818C9.13953 25.1843 8.99186 25.5856 9.00035 26C8.99919 26.2087 9.03762 26.4157 9.11345 26.6089C9.18928 26.8021 9.30101 26.9779 9.44224 27.1261L17.9753 36L20.1315 33.7637L12.6726 26L20.1315 18.2443L17.9449 16ZM32.055 16L29.8988 18.2443L37.3577 26L29.8988 33.7637L32.055 36L40.5881 27.1261C40.8622 26.8217 41.01 26.4171 40.9995 26C40.9998 25.5812 40.8409 25.1792 40.5576 24.8818L32.055 16ZM21.5283 35.4758L25.418 16.0277L28.4687 16.6378L24.579 36.086L21.5283 35.4758Z" fill="url(#paint0_linear_196_11873)"/>
<defs>
<linearGradient id="paint0_linear_196_11873" x1="29.9797" y1="38.485" x2="11.8036" y2="5.12266" gradientUnits="userSpaceOnUse">
<stop stop-color="#2954FF"/>
<stop offset="1" stop-color="#849DFF"/>
</linearGradient>
</defs>
</svg>
